<svg preserveAspectRatio="none" overflow="visible" style="display: block;" width="5.24996" height="9.33205" viewBox="0 0 5.24996 9.33205" fill="none" xmlns="http://www.w3.org/2000/svg">
<path id="union" d="M3.79182 4.51183L0.187253 1.00218C-0.0440714 0.777952 -0.0498208 0.408651 0.174411 0.177326C0.398643 -0.0539985 0.767944 -0.0597483 0.999269 0.164484L4.97806 4.03762C5.33276 4.38145 5.34157 4.94771 4.99775 5.30241C4.98801 5.31235 4.98801 5.31235 4.97806 5.3221L0.989342 9.16757C0.758017 9.3918 0.388716 9.38605 0.164484 9.15473C-0.0597482 8.9234 -0.0539987 8.5541 0.177326 8.32987L3.79097 4.84701C3.88375 4.75758 3.88648 4.60987 3.79705 4.51709C3.79533 4.51531 3.79359 4.51355 3.79182 4.51183Z" fill="black" fill-opacity="0.27"/>
</svg>
