<svg width="14" height="14" viewBox="0 0 14 14" fill="none" xmlns="http://www.w3.org/2000/svg">
<path d="M3.10381 5.9375C3.23323 5.91917 3.36547 5.90947 3.49995 5.90947C5.04635 5.90947 6.29995 7.16308 6.29995 8.70947C6.29995 10.2559 5.04635 11.5095 3.49995 11.5095C1.95355 11.5095 0.699951 10.2559 0.699951 8.70947C0.699951 7.99856 0.965474 7.35005 1.402 6.85625H1.39995L4.8186 2.65625H5.77495L3.10381 5.9375Z" fill="black" fill-opacity="0.3"/>
<path d="M10.1038 5.9375C10.2332 5.91917 10.3655 5.90947 10.5 5.90947C12.0463 5.90947 13.3 7.16308 13.3 8.70947C13.3 10.2559 12.0463 11.5095 10.5 11.5095C8.95355 11.5095 7.69995 10.2559 7.69995 8.70947C7.69995 7.99856 7.96547 7.35005 8.402 6.85625H8.39995L11.8186 2.65625H12.775L10.1038 5.9375Z" fill="black" fill-opacity="0.3"/>
</svg>
