<svg preserveAspectRatio="none" overflow="visible" style="display: block;" width="13.9997" height="12.0018" viewBox="0 0 13.9997 12.0018" fill="none" xmlns="http://www.w3.org/2000/svg">
<g id="Union">
<path d="M6.96271 4.18071C7.14763 4.14161 7.27994 3.97839 7.27994 3.78937V1.46953C7.27994 1.23974 7.55118 1.11754 7.72329 1.2698L12.7097 5.68084C12.8297 5.78698 12.8297 5.97418 12.7097 6.08031L7.7233 10.4914C7.55118 10.6436 7.27994 10.5214 7.27994 10.2916V7.48022C7.27994 7.22965 7.0522 7.04077 6.80595 7.08712L5.85798 7.26555C3.83094 7.64708 2.34115 8.74761 1.20605 10.1912C1.27177 8.51832 1.86324 7.2772 2.67028 6.37053C3.65142 5.26828 5.01466 4.5927 6.32823 4.3149L6.96271 4.18071ZM6.07994 10.2916C6.07994 11.5555 7.57176 12.2276 8.51839 11.3902L13.5048 6.9791C14.1647 6.39538 14.1646 5.36577 13.5048 4.78205L8.51838 0.371001C7.57176 -0.466393 6.07994 0.205678 6.07994 1.46953V3.14086C3.04751 3.78218 -0.353542 6.27646 0.0296668 11.2647C0.0964016 12.1334 1.23127 12.2511 1.71726 11.528C2.54456 10.2971 3.55937 9.33328 4.87994 8.79572C5.25445 8.64327 5.65355 8.5251 6.07994 8.44484V10.2916Z" fill="black" fill-opacity="0.62"/>
</g>
</svg>
