<svg width="28" height="28" viewBox="0 0 28 28" fill="none" xmlns="http://www.w3.org/2000/svg">
<path d="M28 14C28 6.26801 21.732 0 14 0C6.26801 0 0 6.26801 0 14C0 21.732 6.26801 28 14 28C21.732 28 28 21.732 28 14Z" fill="#6FD2BD"/>
<path d="M13.3939 7.23C13.7286 6.92333 14.2714 6.92333 14.6061 7.23L19.7489 11.9415C20.0837 12.2482 20.0837 12.7454 19.7489 13.0521C19.4142 13.3587 18.8715 13.3587 18.5368 13.0521L14.8571 9.68103V20.2147C14.8571 20.6484 14.4734 21 14 21C13.5266 21 13.1429 20.6484 13.1429 20.2147V9.68103L9.46323 13.0521C9.1285 13.3587 8.58579 13.3587 8.25105 13.0521C7.91632 12.7454 7.91632 12.2482 8.25105 11.9415L13.3939 7.23Z" fill="white" fill-opacity="0.94"/>
</svg>
