<svg width="24" height="24" viewBox="0 0 24 24" fill="none" xmlns="http://www.w3.org/2000/svg">
<path d="M3.5 12C3.5 7.30558 7.30558 3.5 12 3.5C16.6944 3.5 20.5 7.30558 20.5 12C20.5 16.6944 16.6944 20.5 12 20.5C7.30558 20.5 3.5 16.6944 3.5 12ZM12 2C6.47715 2 2 6.47715 2 12C2 17.5228 6.47715 22 12 22C17.5228 22 22 17.5228 22 12C22 6.47715 17.5228 2 12 2Z" fill="#141414" fill-opacity="0.8"/>
<path d="M7 9C7 8.44772 7.44772 8 8 8C8.55228 8 9 8.44772 9 9C9 9.55228 8.55228 10 8 10C7.44772 10 7 9.55228 7 9Z" fill="#141414" fill-opacity="0.8"/>
<path d="M11 9C11 8.44772 11.4477 8 12 8C12.5523 8 13 8.44772 13 9C13 9.55228 12.5523 10 12 10C11.4477 10 11 9.55228 11 9Z" fill="#141414" fill-opacity="0.8"/>
<path d="M16 8C15.4477 8 15 8.44772 15 9C15 9.55228 15.4477 10 16 10C16.5523 10 17 9.55228 17 9C17 8.44772 16.5523 8 16 8Z" fill="#141414" fill-opacity="0.8"/>
<path d="M7 12C7 11.4477 7.44772 11 8 11C8.55228 11 9 11.4477 9 12C9 12.5523 8.55228 13 8 13C7.44772 13 7 12.5523 7 12Z" fill="#141414" fill-opacity="0.8"/>
<path d="M12 11C11.4477 11 11 11.4477 11 12C11 12.5523 11.4477 13 12 13C12.5523 13 13 12.5523 13 12C13 11.4477 12.5523 11 12 11Z" fill="#141414" fill-opacity="0.8"/>
<path d="M15 12C15 11.4477 15.4477 11 16 11C16.5523 11 17 11.4477 17 12C17 12.5523 16.5523 13 16 13C15.4477 13 15 12.5523 15 12Z" fill="#141414" fill-opacity="0.8"/>
<path d="M9.75 15C9.33579 15 9 15.3358 9 15.75C9 16.1642 9.33579 16.5 9.75 16.5H14.25C14.6642 16.5 15 16.1642 15 15.75C15 15.3358 14.6642 15 14.25 15H9.75Z" fill="#141414" fill-opacity="0.8"/>
</svg>
