<svg width="20" height="20" viewBox="0 0 20 20" fill="none" xmlns="http://www.w3.org/2000/svg">
<path d="M10 2.4502C11.3968 2.4502 12.9011 2.55591 14.2656 3.19043C14.6614 3.37448 15.0702 3.60151 15.4062 3.87109C16.4942 4.74413 17.2996 6.02372 17.2998 7.22461V12.165C17.2998 13.3302 16.3555 14.2752 15.1904 14.2754H14.9375V15.4404C14.9373 16.6056 13.9923 17.5498 12.8271 17.5498H7.17285C6.00767 17.5498 5.06273 16.6056 5.0625 15.4404V14.2754H4.80957C3.64446 14.2752 2.70022 13.3302 2.7002 12.165V7.22461C2.70037 6.02372 3.50581 4.74413 4.59375 3.87109C4.92976 3.60151 5.3386 3.37448 5.73438 3.19043C7.09893 2.5559 8.60319 2.4502 10 2.4502ZM12.541 3.77246C12.4522 5.10024 11.3503 6.14941 10 6.14941C8.64969 6.14941 7.54675 5.10027 7.45801 3.77246C7.02069 3.86829 6.59915 4.00205 6.19824 4.18848C5.84281 4.35378 5.52082 4.53627 5.28125 4.72852C4.34452 5.48024 3.79999 6.47567 3.7998 7.22461V12.165C3.79983 12.7227 4.25197 13.1746 4.80957 13.1748H5.0625V7.22461C5.06271 6.9211 5.30877 6.67491 5.6123 6.6748C5.91593 6.6748 6.1619 6.92103 6.16211 7.22461V15.4404C6.16234 15.998 6.61519 16.4502 7.17285 16.4502H12.8271C13.3848 16.4502 13.8377 15.998 13.8379 15.4404V7.22461C13.8381 6.92103 14.0841 6.6748 14.3877 6.6748C14.6912 6.67491 14.9373 6.9211 14.9375 7.22461V13.1748H15.1904C15.748 13.1746 16.2002 12.7227 16.2002 12.165V7.22461C16.2 6.47567 15.6555 5.48024 14.7188 4.72852C14.4792 4.53627 14.1572 4.35378 13.8018 4.18848C13.4006 4.00192 12.9787 3.86831 12.541 3.77246ZM10 3.5498C9.5071 3.5498 9.02203 3.56401 8.5498 3.60742C8.55382 4.40481 9.20167 5.0498 10 5.0498C10.7983 5.0498 11.4452 4.40481 11.4492 3.60742C10.9773 3.56408 10.4926 3.5498 10 3.5498Z" fill="#141414"/>
</svg>
