<svg width="20" height="20" viewBox="0 0 20 20" fill="none" xmlns="http://www.w3.org/2000/svg">
<path d="M9.87156 9.29975C8.67066 9.29975 7.6142 8.54017 7.21976 7.42616C7.11607 7.13332 7.26941 6.81186 7.56226 6.70817C7.8551 6.60448 8.17655 6.75783 8.28024 7.05067C8.51682 7.71884 9.15092 8.17475 9.87156 8.17475C10.5961 8.17475 11.2328 7.71394 11.4664 7.04064C11.5682 6.74714 11.8887 6.59175 12.1822 6.69357C12.4757 6.79539 12.6311 7.11586 12.5292 7.40936C12.1398 8.53202 11.0789 9.29975 9.87156 9.29975Z" fill="#141414"/>
<path d="M7.07271 2.875H12.925C14.4666 2.875 15.7572 4.04335 15.9102 5.57731L16.7329 13.8273C16.8973 15.476 15.6941 16.9458 14.0454 17.1102C13.9465 17.1201 13.8471 17.125 13.7477 17.125H6.25C4.59315 17.125 3.25 15.7819 3.25 14.125C3.25 14.0256 3.25494 13.9262 3.26481 13.8273L4.08752 5.57731C4.24049 4.04335 5.53115 2.875 7.07271 2.875ZM7.07271 4C6.10923 4 5.30258 4.73022 5.20697 5.68894L4.38425 13.9389C4.37809 14.0008 4.375 14.0629 4.375 14.125C4.375 15.1605 5.21447 16 6.25 16H13.7477C13.8098 16 13.8719 15.9969 13.9338 15.9907C14.9642 15.888 15.7162 14.9694 15.6134 13.9389L14.7907 5.68894C14.6951 4.73022 13.8885 4 12.925 4H7.07271Z" fill="#141414"/>
</svg>
