<svg width="24" height="24" viewBox="0 0 24 24" fill="none" xmlns="http://www.w3.org/2000/svg">
<path d="M15.9084 6.17082C16.1624 6.679 16.6818 7 17.25 7H19C19.8284 7 20.5 7.67157 20.5 8.5V18C20.5 18.8284 19.8284 19.5 19 19.5H5C4.17157 19.5 3.5 18.8284 3.5 18V8.5C3.5 7.67157 4.17157 7 5 7H6.75C7.31816 7 7.83755 6.679 8.09164 6.17082L8.78886 4.77639C8.87355 4.607 9.04668 4.5 9.23607 4.5H14.7639C14.9533 4.5 15.1264 4.607 15.2111 4.77639L15.9084 6.17082ZM9.23607 3C8.47852 3 7.786 3.428 7.44721 4.10557L6.75 5.5H5C3.34315 5.5 2 6.84315 2 8.5V18C2 19.6569 3.34315 21 5 21H19C20.6569 21 22 19.6569 22 18V8.5C22 6.84315 20.6569 5.5 19 5.5H17.25L16.5528 4.10557C16.214 3.428 15.5215 3 14.7639 3H9.23607ZM9.5 13C9.5 11.6193 10.6193 10.5 12 10.5C13.3807 10.5 14.5 11.6193 14.5 13C14.5 14.3807 13.3807 15.5 12 15.5C10.6193 15.5 9.5 14.3807 9.5 13ZM12 9C9.79086 9 8 10.7909 8 13C8 15.2091 9.79086 17 12 17C14.2091 17 16 15.2091 16 13C16 10.7909 14.2091 9 12 9Z" fill="#141414" fill-opacity="0.8"/>
</svg>
