<svg preserveAspectRatio="none" width="100%" height="100%" overflow="visible" style="display: block;" viewBox="0 0 24 24" fill="none" xmlns="http://www.w3.org/2000/svg">
<g id="message_menu">
<path id="union" d="M12 3.5C16.6944 3.5 20.5 7.30558 20.5 12C20.5 16.6944 16.6944 20.5 12 20.5C7.30558 20.5 3.5 16.6944 3.5 12C3.5 7.30558 7.30558 3.5 12 3.5ZM22 12C22 6.47715 17.5228 2 12 2C6.47715 2 2 6.47715 2 12C2 17.5228 6.47715 22 12 22C17.5228 22 22 17.5228 22 12Z" fill="var(--fill-0, #141414)" fill-opacity="0.8"/>
<g id="Frame 2116746851">
<path id="union_2" d="M8.6875 9.75C9.0672 9.75 9.375 10.0578 9.375 10.4375L9.375 12.7292C9.375 13.1089 9.0672 13.4167 8.6875 13.4167C8.3078 13.4167 8 13.1089 8 12.7292L8 10.4375C8 10.0578 8.3078 9.75 8.6875 9.75Z" fill="var(--fill-0, #141414)" fill-opacity="0.8"/>
<path id="union_3" d="M11.1625 7C11.5422 7 11.85 7.3078 11.85 7.6875L11.85 15.4792C11.85 15.8589 11.5422 16.1667 11.1625 16.1667C10.7828 16.1667 10.475 15.8589 10.475 15.4792L10.475 7.6875C10.475 7.3078 10.7828 7 11.1625 7Z" fill="var(--fill-0, #141414)" fill-opacity="0.8"/>
<path id="union_4" d="M13.6375 8.375C14.0172 8.375 14.325 8.6828 14.325 9.0625L14.325 14.1042C14.325 14.4839 14.0172 14.7917 13.6375 14.7917C13.2578 14.7917 12.95 14.4839 12.95 14.1042L12.95 9.0625C12.95 8.6828 13.2578 8.375 13.6375 8.375Z" fill="var(--fill-0, #141414)" fill-opacity="0.8"/>
<path id="union_5" d="M16.1125 10.6667C16.4922 10.6667 16.8 10.9745 16.8 11.3542L16.8 11.8125C16.8 12.1922 16.4922 12.5 16.1125 12.5C15.7328 12.5 15.425 12.1922 15.425 11.8125L15.425 11.3542C15.425 10.9745 15.7328 10.6667 16.1125 10.6667Z" fill="var(--fill-0, #141414)" fill-opacity="0.8"/>
</g>
</g>
</svg>
