<svg width="20" height="20" viewBox="0 0 20 20" fill="none" xmlns="http://www.w3.org/2000/svg">
<path d="M7.18359 3.10752C7.67379 2.92347 8.22208 2.9779 8.66699 3.254L11.6982 5.13486C11.8618 5.23608 12.0661 5.24679 12.2393 5.16318L15.0771 3.78916C16.1977 3.24704 17.5 4.06379 17.5 5.30869V13.4513C17.5 14.0934 17.1353 14.6806 16.5596 14.9649L12.7246 16.8575C12.2119 17.1106 11.6056 17.0865 11.1143 16.794L8.07715 14.9864C7.93051 14.8991 7.75162 14.8827 7.5918 14.9425L4.78125 15.9981C3.67794 16.4126 2.50012 15.5976 2.5 14.419V6.03623C2.5 5.33322 2.9357 4.70346 3.59375 4.45615L7.18359 3.10752ZM8.07422 4.20908C7.92598 4.11709 7.74245 4.09997 7.5791 4.16123L3.98926 5.50986C3.77015 5.59241 3.625 5.80205 3.625 6.03623V7.53232L4.98633 6.93857C5.27093 6.8145 5.60322 6.94514 5.72754 7.22959C5.85128 7.51409 5.72082 7.84556 5.43652 7.96982L3.89941 8.64072C3.80988 8.67969 3.71592 8.68992 3.625 8.68174V9.78232L4.98633 9.18857C5.27086 9.06452 5.60314 9.19431 5.72754 9.47861C5.85168 9.76324 5.721 10.0955 5.43652 10.2198L3.89941 10.8907C3.80989 10.9297 3.71591 10.9399 3.625 10.9317V14.419C3.62512 14.8118 4.01801 15.0836 4.38574 14.9454L7.19531 13.8897C7.67528 13.7096 8.21182 13.7573 8.65234 14.0196L11.6904 15.8282C11.8541 15.9253 12.0559 15.9329 12.2266 15.8487L16.0615 13.9562C16.2533 13.8613 16.375 13.6653 16.375 13.4513V5.30869C16.375 4.89381 15.9409 4.62137 15.5674 4.80185L12.7295 6.17588C12.2092 6.42752 11.5956 6.3946 11.1045 6.08994L8.07422 4.20908ZM11.9277 7.41416C12.2381 7.41447 12.4902 7.66625 12.4902 7.97666V13.9767C12.4902 14.2871 12.2381 14.5388 11.9277 14.5392C11.6171 14.5392 11.3652 14.2873 11.3652 13.9767V7.97666C11.3653 7.66606 11.6171 7.41416 11.9277 7.41416ZM7.90039 5.48935C8.2107 5.48977 8.46289 5.74144 8.46289 6.05185V12.1769C8.46289 12.4873 8.2107 12.7389 7.90039 12.7394C7.58973 12.7394 7.33789 12.4875 7.33789 12.1769V6.05185C7.33789 5.74119 7.58973 5.48935 7.90039 5.48935Z" fill="#141414" fill-opacity="0.6"/>
</svg>
