<svg width="20" height="20" viewBox="0 0 20 20" fill="none" xmlns="http://www.w3.org/2000/svg">
<path d="M13.4207 3C14.9128 3 16.1225 4.20972 16.1225 5.70183V10.9045C16.1225 10.9807 16.1139 11.058 16.0741 11.123C16.0098 11.2282 15.8709 11.3755 15.5979 11.3736C15.3297 11.3718 15.1895 11.2308 15.1226 11.1273C15.0792 11.06 15.0696 10.9787 15.0696 10.8987V5.70183C15.0696 4.79106 14.3315 4.05296 13.4207 4.05296H5.70183C4.79106 4.05296 4.05296 4.79106 4.05296 5.70183V12.7871L6.08699 10.731C6.42773 10.3867 6.98285 10.3839 7.32719 10.7246L7.33431 10.7317L8.67633 12.088L11.9278 8.80163C12.2685 8.45733 12.8236 8.45454 13.168 8.79522L13.1751 8.80234L13.7912 9.42533C13.886 9.5211 13.9634 9.63974 13.9561 9.77424C13.95 9.88386 13.9139 10.0182 13.7959 10.1251C13.676 10.2338 13.5302 10.2674 13.4136 10.2737C13.277 10.2811 13.1532 10.2103 13.0516 10.1187L12.5514 9.66806L9.29999 12.9544L9.29287 12.9608C8.94851 13.3013 8.39333 13.2986 8.05266 12.9544L6.71065 11.5974L4.20817 14.1255L4.24519 14.1939C4.52218 14.7146 5.07037 15.0696 5.70183 15.0696H10.2903C10.2903 15.0696 10.7287 15.1304 10.725 15.5936C10.7222 15.9471 10.4704 16.0691 10.3514 16.1071C10.3113 16.1199 10.2692 16.1225 10.2271 16.1225H5.70183C4.20972 16.1225 3 14.9128 3 13.4207V5.70183C3 4.20972 4.20972 3 5.70183 3H13.4207Z" fill="#141414"/>
<path d="M6.96481 5.94745C7.52677 5.94745 7.98217 6.40286 7.98218 6.96481C7.98218 7.52678 7.52678 7.98218 6.96481 7.98218C6.40286 7.98217 5.94745 7.52677 5.94745 6.96481C5.94746 6.40287 6.40287 5.94746 6.96481 5.94745Z" fill="#141414"/>
<path d="M14.6428 11.8159C14.3961 11.3648 13.7482 11.3648 13.5015 11.8159L12.8467 13.0133L11.6493 13.6682C11.1982 13.9149 11.1982 14.5627 11.6493 14.8094L12.8467 15.4643L13.5015 16.6617C13.7482 17.1128 14.3961 17.1128 14.6428 16.6617L15.2977 15.4643L16.4951 14.8094C16.9461 14.5627 16.9461 13.9149 16.4951 13.6682L15.2977 13.0133L14.6428 11.8159ZM13.6257 13.6028L14.0722 12.8411L14.5214 13.6028C14.581 13.7119 14.6691 13.8017 14.7783 13.8614L15.4656 14.2388L14.7783 14.6162C14.6691 14.6759 14.581 14.7656 14.5214 14.8748L14.0722 15.6322L13.6257 14.8748C13.566 14.7656 13.4779 14.6759 13.3688 14.6162L12.6745 14.2388L13.3688 13.8614C13.4779 13.8017 13.566 13.7119 13.6257 13.6028Z" fill="#141414"/>
</svg>
