<svg preserveAspectRatio="none" width="100%" height="100%" overflow="visible" style="display: block;" viewBox="0 0 9.61714 22" fill="none" xmlns="http://www.w3.org/2000/svg">
<g id="Frame 2090052477">
<path id="&#226;&#128;&#156;" d="M9.61714 5V6.41429C8.85343 6.64057 8.25943 7.06486 7.80686 7.68714C7.38257 8.22457 7.18457 8.84686 7.18457 9.52571C7.29771 9.46914 7.524 9.44086 7.80686 9.44086C8.28771 9.44086 8.712 9.58229 9.05143 9.92171C9.36257 10.2611 9.53229 10.6571 9.53229 11.1663C9.53229 11.6754 9.33429 12.0997 8.99486 12.4391C8.65543 12.7503 8.23114 12.92 7.69371 12.92C7.04314 12.92 6.534 12.6371 6.138 12.128C5.77029 11.6189 5.60057 10.94 5.60057 10.148C5.60057 8.87514 5.94 7.772 6.67543 6.86686C7.41086 5.93343 8.37257 5.31114 9.61714 5ZM4.01657 5V6.41429C3.25286 6.64057 2.65886 7.06486 2.23457 7.65886C1.782 8.22457 1.584 8.84686 1.584 9.52571C1.69714 9.46914 1.92343 9.44086 2.23457 9.44086C2.68714 9.44086 3.08314 9.58229 3.42257 9.92171C3.762 10.2611 3.93171 10.6571 3.93171 11.1663C3.93171 11.6754 3.762 12.0997 3.45086 12.4391C3.11143 12.7503 2.65886 12.92 2.09314 12.92C1.44257 12.92 0.933428 12.6371 0.565714 12.128C0.169714 11.6189 0 10.9683 0 10.148C0 8.87514 0.367714 7.772 1.10314 6.86686C1.81029 5.93343 2.772 5.31114 4.01657 5Z" fill="var(--fill-0, #303034)" fill-opacity="0.2"/>
<path id="&#226;&#128;&#156;_2" d="M9.61714 12.92V14.3343C8.85343 14.5606 8.25943 14.9849 7.80686 15.6071C7.38257 16.1446 7.18457 16.7669 7.18457 17.4457C7.29771 17.3891 7.524 17.3609 7.80686 17.3609C8.28771 17.3609 8.712 17.5023 9.05143 17.8417C9.36257 18.1811 9.53229 18.5771 9.53229 19.0863C9.53229 19.5954 9.33429 20.0197 8.99486 20.3591C8.65543 20.6703 8.23114 20.84 7.69371 20.84C7.04314 20.84 6.534 20.5571 6.138 20.048C5.77029 19.5389 5.60057 18.86 5.60057 18.068C5.60057 16.7951 5.94 15.692 6.67543 14.7869C7.41086 13.8534 8.37257 13.2311 9.61714 12.92ZM4.01657 12.92V14.3343C3.25286 14.5606 2.65886 14.9849 2.23457 15.5789C1.782 16.1446 1.584 16.7669 1.584 17.4457C1.69714 17.3891 1.92343 17.3609 2.23457 17.3609C2.68714 17.3609 3.08314 17.5023 3.42257 17.8417C3.762 18.1811 3.93171 18.5771 3.93171 19.0863C3.93171 19.5954 3.762 20.0197 3.45086 20.3591C3.11143 20.6703 2.65886 20.84 2.09314 20.84C1.44257 20.84 0.933428 20.5571 0.565714 20.048C0.169714 19.5389 0 18.8883 0 18.068C0 16.7951 0.367714 15.692 1.10314 14.7869C1.81029 13.8534 2.772 13.2311 4.01657 12.92Z" fill="var(--fill-0, white)"/>
</g>
</svg>
