<svg preserveAspectRatio="none" width="100%" height="100%" overflow="visible" style="display: block;" viewBox="0 0 18 18" fill="none" xmlns="http://www.w3.org/2000/svg">
<g id="like">
<path id="union" d="M3.66321 4.40253L3.66309 4.40264C2.2804 5.76798 2.27876 7.98031 3.65943 9.34824C3.6596 9.34841 3.65977 9.34858 3.65994 9.34875L8.99987 14.6232L14.3363 9.35308C14.3365 9.35287 14.3368 9.35266 14.337 9.35245C15.7219 7.9802 15.7198 5.76792 14.3374 4.40253C13.6633 3.73667 12.7634 3.375 11.8253 3.375C11.0458 3.375 10.294 3.62437 9.67634 4.08893L9.00036 4.59734L8.32421 4.08916C7.70584 3.6244 6.95384 3.375 6.17489 3.375C5.23675 3.375 4.33758 3.73643 3.66321 4.40253ZM15.128 10.1524L9.78605 15.4279C9.35129 15.8574 8.64961 15.8574 8.21368 15.4279L2.8683 10.1481C1.04234 8.33969 1.04402 5.40781 2.87264 3.60214C3.76097 2.7247 4.9456 2.25 6.17489 2.25C7.19506 2.25 8.1848 2.57705 9.00013 3.18984C9.81504 2.57694 10.8047 2.25 11.8253 2.25C13.0544 2.25 14.2398 2.72486 15.128 3.60214C16.957 5.40869 16.9575 8.34051 15.128 10.1524Z" fill="var(--fill-0, black)" fill-opacity="0.62"/>
</g>
</svg>
