<svg preserveAspectRatio="none" width="100%" height="100%" overflow="visible" style="display: block;" viewBox="0 0 24 24" fill="none" xmlns="http://www.w3.org/2000/svg">
<g id="{user.avatar}">
<g id="Vector">
<path d="M10.0336 21.9977C10.0336 21.9973 10.0339 21.997 10.0343 21.997C10.5435 21.997 10.9052 21.9883 11.3407 21.9796C12.2931 21.9666 13.2413 21.8913 14.1821 21.7437C15.1215 21.5931 16.0335 21.3094 16.8846 20.9041C18.5955 20.0818 19.9866 18.7703 20.858 17.1563C21.2879 16.3528 21.5889 15.4944 21.7496 14.607C21.903 13.724 21.9986 12.8308 21.9986 11.9333C21.9986 9.55203 21.1417 6.98688 19.092 4.93709C17.0409 2.88874 14.599 1.99991 12.0615 1.99991C11.167 1.99991 10.2739 2.09401 9.39092 2.2489C8.50506 2.40958 7.64525 2.71068 6.84189 3.14062C5.22938 4.01207 3.91651 5.40176 3.09433 7.11138C2.68903 7.96401 2.40677 8.87455 2.25479 9.81549C2.10859 10.755 2.03042 11.7046 2.01884 12.6571C2.00871 13.0928 2.00147 13.5155 2.00147 13.9643C2.00147 14.0859 2.00126 14.7315 2.00095 15.6082C1.99996 18.4174 1.99946 19.822 2.77789 20.7646C2.91513 20.9308 3.06786 21.0836 3.23403 21.2209C4.17656 21.9995 5.58121 21.9992 8.3905 21.9987C9.25472 21.9986 9.89538 21.9985 10.0331 21.9985C10.0335 21.9985 10.0336 21.9981 10.0336 21.9977Z" fill="var(--fill-0, black)" fill-opacity="0.1"/>
<path d="M10.0336 21.9977C10.0336 21.9973 10.0339 21.997 10.0343 21.997C10.5435 21.997 10.9052 21.9883 11.3407 21.9796C12.2931 21.9666 13.2413 21.8913 14.1821 21.7437C15.1215 21.5931 16.0335 21.3094 16.8846 20.9041C18.5955 20.0818 19.9866 18.7703 20.858 17.1563C21.2879 16.3528 21.5889 15.4944 21.7496 14.607C21.903 13.724 21.9986 12.8308 21.9986 11.9333C21.9986 9.55203 21.1417 6.98688 19.092 4.93709C17.0409 2.88874 14.599 1.99991 12.0615 1.99991C11.167 1.99991 10.2739 2.09401 9.39092 2.2489C8.50506 2.40958 7.64525 2.71068 6.84189 3.14062C5.22938 4.01207 3.91651 5.40176 3.09433 7.11138C2.68903 7.96401 2.40677 8.87455 2.25479 9.81549C2.10859 10.755 2.03042 11.7046 2.01884 12.6571C2.00871 13.0928 2.00147 13.5155 2.00147 13.9643C2.00147 14.0859 2.00126 14.7315 2.00095 15.6082C1.99996 18.4174 1.99946 19.822 2.77789 20.7646C2.91513 20.9308 3.06786 21.0836 3.23403 21.2209C4.17656 21.9995 5.58121 21.9992 8.3905 21.9987C9.25472 21.9986 9.89538 21.9985 10.0331 21.9985C10.0335 21.9985 10.0336 21.9981 10.0336 21.9977Z" fill="url(#paint0_linear_0_84)"/>
</g>
</g>
<defs>
<linearGradient id="paint0_linear_0_84" x1="19.2211" y1="4.77742" x2="1.99858" y2="21.9999" gradientUnits="userSpaceOnUse">
<stop stop-color="#83F2DF"/>
<stop offset="1" stop-color="#D9F7F2"/>
</linearGradient>
</defs>
</svg>
