<svg preserveAspectRatio="none" width="100%" height="100%" overflow="visible" style="display: block;" viewBox="0 0 14 14" fill="none" xmlns="http://www.w3.org/2000/svg">
<g id="compilations_b">
<path id="union" d="M4.61544 1.16666C4.32157 1.16666 4.08335 1.40489 4.08335 1.69876C4.08335 1.99262 4.32157 2.23085 4.61544 2.23085H9.93639C10.9486 2.23085 11.7692 3.05141 11.7692 4.06362V9.38457C11.7692 9.67843 12.0074 9.91666 12.3013 9.91666C12.5951 9.91666 12.8333 9.67843 12.8333 9.38457V4.06362C12.8333 2.46367 11.5363 1.16666 9.93639 1.16666H4.61544ZM3.50001 4.54999H8.16668C8.87544 4.54999 9.45001 5.12456 9.45001 5.83333V10.5C9.45001 11.2088 8.87544 11.7833 8.16668 11.7833H3.50001C2.79125 11.7833 2.21668 11.2088 2.21668 10.5V5.83333C2.21668 5.12456 2.79125 4.54999 3.50001 4.54999ZM1.16668 5.83333V10.5C1.16668 11.7887 2.21135 12.8333 3.50001 12.8333H8.16668C9.45534 12.8333 10.5 11.7887 10.5 10.5V5.83333C10.5 4.54466 9.45534 3.49999 8.16668 3.49999H3.50001C2.21135 3.49999 1.16668 4.54466 1.16668 5.83333Z" fill="var(--fill-0, black)" fill-opacity="0.62"/>
</g>
</svg>
