<svg preserveAspectRatio="none" width="100%" height="100%" overflow="visible" style="display: block;" viewBox="0 0 14 14" fill="none" xmlns="http://www.w3.org/2000/svg">
<g id="refresh_b">
<path id="union" d="M3.71324 4.33768C4.48663 3.40535 5.65736 2.8118 6.96697 2.8118C9.2946 2.8118 11.1815 4.68692 11.1815 7C11.1815 9.31308 9.2946 11.1882 6.96697 11.1882C5.76163 11.1882 4.67518 10.6861 3.90635 9.87933C3.70347 9.66644 3.36533 9.6573 3.15111 9.85891C2.93688 10.0605 2.92768 10.3966 3.13057 10.6094C4.09278 11.6191 5.45617 12.25 6.96697 12.25C9.88471 12.25 12.25 9.8995 12.25 7C12.25 4.10051 9.88471 1.75 6.96697 1.75C5.26025 1.75 3.74324 2.55429 2.77778 3.80097L2.05817 3.3881C1.60018 3.12533 1.05112 3.54401 1.188 4.05163L1.74981 6.13526C1.83466 6.44995 2.16015 6.6367 2.47682 6.55238L4.57356 5.99407C5.08438 5.85805 5.17472 5.17619 4.71673 4.91342L3.71324 4.33768Z" fill="var(--fill-0, black)" fill-opacity="0.62"/>
</g>
</svg>
