<svg preserveAspectRatio="none" width="100%" height="100%" overflow="visible" style="display: block;" viewBox="0 0 32 32" fill="none" xmlns="http://www.w3.org/2000/svg">
<g id="Frame 2134052106">
<path d="M7 16C7 11.0294 11.0294 7 16 7V7C20.9706 7 25 11.0294 25 16V16C25 20.9706 20.9706 25 16 25V25C11.0294 25 7 20.9706 7 16V16Z" fill="var(--fill-0, #303034)" fill-opacity="0.03"/>
<path d="M16 7.2002C20.8601 7.2002 24.7998 11.1399 24.7998 16C24.7998 20.8601 20.8601 24.7998 16 24.7998C11.1399 24.7998 7.2002 20.8601 7.2002 16C7.2002 11.1399 11.1399 7.2002 16 7.2002Z" stroke="var(--stroke-0, #303034)" stroke-opacity="0.08" stroke-width="0.4"/>
<path id="Vector 20463" d="M13.375 16.375L15.4375 18.25L19.1875 14.125" stroke="var(--stroke-0, black)" stroke-opacity="0.27" stroke-width="1.5" stroke-linecap="round" stroke-linejoin="round"/>
</g>
</svg>
