<svg preserveAspectRatio="none" width="100%" height="100%" overflow="visible" style="display: block;" viewBox="0 0 16 16" fill="none" xmlns="http://www.w3.org/2000/svg">
<g id="dislike_new">
<g id="Union">
<path d="M10.7207 9.5026C10.9727 9.52837 11.1693 9.74123 11.1693 10C11.1693 10.2588 10.9727 10.4716 10.7207 10.4974L10.6693 10.5H5.33594C5.0598 10.5 4.83595 10.2761 4.83594 10C4.83594 9.72386 5.05979 9.5 5.33594 9.5H10.6693L10.7207 9.5026Z" fill="var(--fill-0, black)" fill-opacity="0.62"/>
<path d="M10.9362 6.0332C11.1019 5.81248 11.4152 5.76796 11.6361 5.93359C11.8568 6.09932 11.9013 6.41263 11.7357 6.63346L11.6686 6.7181C10.9726 7.53861 9.69926 7.5386 9.00325 6.7181L8.9362 6.63346L8.90755 6.59115C8.77658 6.37412 8.82878 6.08903 9.03581 5.93359C9.24293 5.77827 9.53137 5.80776 9.70312 5.99414L9.73568 6.0332L9.79557 6.10352C10.0888 6.40983 10.583 6.40984 10.8763 6.10352L10.9362 6.0332Z" fill="var(--fill-0, black)" fill-opacity="0.62"/>
<path d="M6.26432 6.0332C6.43005 5.81248 6.74335 5.76796 6.96419 5.93359C7.18491 6.09932 7.22942 6.41263 7.0638 6.63346C6.38559 7.53748 5.05048 7.56583 4.33138 6.7181L4.26432 6.63346L4.23568 6.59115C4.10471 6.37412 4.15691 6.08903 4.36393 5.93359C4.57106 5.77826 4.8595 5.80776 5.03125 5.99414L5.0638 6.0332L5.1237 6.10352C5.4379 6.43169 5.98306 6.40822 6.26432 6.0332Z" fill="var(--fill-0, black)" fill-opacity="0.62"/>
<path d="M8 1.33333C11.6819 1.33333 14.6667 4.3181 14.6667 8C14.6667 11.6819 11.6819 14.6667 8 14.6667C4.3181 14.6667 1.33333 11.6819 1.33333 8C1.33333 4.3181 4.3181 1.33333 8 1.33333ZM8 2.33333C4.87039 2.33333 2.33333 4.87039 2.33333 8C2.33333 11.1296 4.87039 13.6667 8 13.6667C11.1296 13.6667 13.6667 11.1296 13.6667 8C13.6667 4.87039 11.1296 2.33333 8 2.33333Z" fill="var(--fill-0, black)" fill-opacity="0.62"/>
</g>
</g>
</svg>
