<svg preserveAspectRatio="none" width="100%" height="100%" overflow="visible" style="display: block;" viewBox="0 0 14 14" fill="none" xmlns="http://www.w3.org/2000/svg">
<g id="share_new_b">
<g id="Union">
<path d="M6.96737 5.11646C7.12918 5.08224 7.24495 4.93942 7.24495 4.77403V2.74417C7.24495 2.54311 7.48228 2.43619 7.63288 2.56941L11.996 6.42907C12.101 6.52194 12.101 6.68574 11.996 6.7786L7.63288 10.6383C7.48228 10.7715 7.24495 10.6646 7.24495 10.4635V8.00353C7.24495 7.78428 7.04567 7.61901 6.83021 7.65957L6.00073 7.81569C4.22708 8.14953 2.92351 9.11249 1.93029 10.3756C1.9878 8.91187 2.50534 7.82588 3.2115 7.03255C4.06999 6.06807 5.26283 5.47695 6.4122 5.23387L6.96737 5.11646ZM6.19495 10.4635C6.19495 11.5694 7.50029 12.1575 8.32859 11.4247L12.6917 7.56505C13.2691 7.05429 13.2691 6.15338 12.6917 5.64263L8.32858 1.78296C7.50029 1.05024 6.19495 1.6383 6.19495 2.74417V4.20659C3.54157 4.76774 0.565651 6.95023 0.900958 11.3149C0.959351 12.075 1.95236 12.1781 2.3776 11.5454C3.10149 10.4683 3.98945 9.62495 5.14495 9.15459C5.47265 9.02119 5.82186 8.91779 6.19495 8.84757V10.4635Z" fill="var(--fill-0, black)" fill-opacity="0.62"/>
</g>
</g>
</svg>
