<svg preserveAspectRatio="none" width="100%" height="100%" overflow="visible" style="display: block;" viewBox="0 0 14 14" fill="none" xmlns="http://www.w3.org/2000/svg">
<g id="arrow_right_center_m">
<path id="union" d="M8.45849 6.84516L4.85392 3.33552C4.6226 3.11129 4.61685 2.74198 4.84108 2.51066C5.06531 2.27933 5.43461 2.27358 5.66594 2.49782L9.64472 6.37096C9.99942 6.71478 10.0082 7.28104 9.66442 7.63574C9.65467 7.64569 9.65467 7.64569 9.64472 7.65543L5.65601 11.5009C5.42468 11.7251 5.05538 11.7194 4.83115 11.4881C4.60692 11.2567 4.61267 10.8874 4.84399 10.6632L8.45763 7.18035C8.55042 7.09092 8.55314 6.9432 8.46372 6.85042C8.462 6.84864 8.46026 6.84689 8.45849 6.84516Z" fill="var(--fill-0, black)" fill-opacity="0.27"/>
</g>
</svg>
