<svg preserveAspectRatio="none" width="100%" height="100%" overflow="visible" style="display: block;" viewBox="0 0 12 12" fill="none" xmlns="http://www.w3.org/2000/svg">
<g id="note_single_b">
<g id="Union">
<path d="M3.25 4.44996C3.25 4.20144 3.45147 3.99997 3.7 3.99997H8.3C8.54853 3.99997 8.75 4.20144 8.75 4.44996C8.75 4.69849 8.54853 4.89997 8.3 4.89997H3.7C3.45147 4.89997 3.25 4.69849 3.25 4.44996Z" fill="black" fill-opacity="0.45"/>
<path d="M3.7 6.09994C3.45147 6.09994 3.25 6.30141 3.25 6.54994C3.25 6.79847 3.45147 6.99994 3.7 6.99994H6.1C6.34853 6.99994 6.55 6.79847 6.55 6.54994C6.55 6.30141 6.34853 6.09994 6.1 6.09994H3.7Z" fill="black" fill-opacity="0.45"/>
<path d="M1.5 3.49997C1.5 2.11925 2.61929 0.999965 4 0.999965H8C9.38071 0.999965 10.5 2.11925 10.5 3.49997V8.49997C10.5 9.88068 9.38071 11 8 11H4C2.61929 11 1.5 9.88068 1.5 8.49997V3.49997ZM4 1.89997C3.11634 1.89997 2.4 2.61631 2.4 3.49997V8.49997C2.4 9.38362 3.11634 10.1 4 10.1H8C8.88366 10.1 9.6 9.38362 9.6 8.49997V3.49997C9.6 2.61631 8.88366 1.89997 8 1.89997H4Z" fill="black" fill-opacity="0.45"/>
</g>
</g>
</svg>
