<svg preserveAspectRatio="none" width="100%" height="100%" overflow="visible" style="display: block;" viewBox="0 0 24 24" fill="none" xmlns="http://www.w3.org/2000/svg">
<g id="message_voice">
<g id="union">
<path d="M3.5 12C3.5 7.30558 7.30558 3.5 12 3.5C16.6944 3.5 20.5 7.30558 20.5 12C20.5 16.6944 16.6944 20.5 12 20.5C7.30558 20.5 3.5 16.6944 3.5 12ZM12 2C6.47715 2 2 6.47715 2 12C2 17.5228 6.47715 22 12 22C17.5228 22 22 17.5228 22 12C22 6.47715 17.5228 2 12 2Z" fill="black" fill-opacity="0.8"/>
<path d="M13.0309 6.41481C13.3541 6.15574 13.8261 6.20771 14.0852 6.5309C15.2859 8.02875 16.0047 9.93147 16.0047 12C16.0047 14.0685 15.2859 15.9712 14.0852 17.4691C13.8261 17.7923 13.3541 17.8443 13.0309 17.5852C12.7077 17.3261 12.6558 16.8541 12.9148 16.5309C13.9099 15.2896 14.5047 13.7153 14.5047 12C14.5047 10.2847 13.9099 8.71044 12.9148 7.4691C12.6558 7.14591 12.7077 6.67389 13.0309 6.41481Z" fill="black" fill-opacity="0.8"/>
<path d="M10.5496 8.40034C10.8808 8.15157 11.351 8.21839 11.5997 8.54959C12.3216 9.51066 12.7497 10.7064 12.7497 12C12.7497 13.2936 12.3216 14.4893 11.5997 15.4504C11.351 15.7816 10.8808 15.8484 10.5496 15.5996C10.2184 15.3509 10.1516 14.8807 10.4004 14.5495C10.9338 13.8393 11.2497 12.9576 11.2497 12C11.2497 11.0424 10.9338 10.1607 10.4004 9.45045C10.1516 9.11925 10.2184 8.6491 10.5496 8.40034Z" fill="black" fill-opacity="0.8"/>
<path d="M8.25 13.25C8.94036 13.25 9.5 12.6903 9.5 12C9.5 11.3096 8.94036 10.75 8.25 10.75C7.55964 10.75 7 11.3096 7 12C7 12.6903 7.55964 13.25 8.25 13.25Z" fill="black" fill-opacity="0.8"/>
</g>
</g>
</svg>
