<svg preserveAspectRatio="none" width="100%" height="100%" overflow="visible" style="display: block;" viewBox="0 0 12 12" fill="none" xmlns="http://www.w3.org/2000/svg">
<g id="internet_b">
<path id="Union" d="M6 1.0498C8.73381 1.0498 10.9502 3.26619 10.9502 6C10.9502 8.73381 8.73381 10.9502 6 10.9502C3.26619 10.9502 1.0498 8.73381 1.0498 6C1.0498 3.26619 3.26619 1.0498 6 1.0498ZM5.10547 7.9502C5.17419 8.35903 5.26182 8.72685 5.36621 9.04004C5.49317 9.42084 5.63453 9.69686 5.76953 9.86816C5.90848 10.0444 5.98988 10.0498 6 10.0498C6.01012 10.0498 6.09152 10.0444 6.23047 9.86816C6.36547 9.69686 6.50683 9.42084 6.63379 9.04004C6.73818 8.72685 6.82581 8.35903 6.89453 7.9502H5.10547ZM2.4502 7.9502C2.93723 8.83488 3.74556 9.51643 4.71777 9.84082C4.6433 9.67963 4.57358 9.50688 4.5127 9.32422C4.37924 8.92386 4.2717 8.45924 4.19336 7.9502H2.4502ZM7.80664 7.9502C7.7283 8.45924 7.62076 8.92386 7.4873 9.32422C7.42637 9.50702 7.35579 9.67952 7.28125 9.84082C8.25385 9.51655 9.06262 8.83515 9.5498 7.9502H7.80664ZM2.08887 4.9502C1.99921 5.2851 1.9502 5.6368 1.9502 6C1.9502 6.3632 1.99921 6.7149 2.08887 7.0498H4.09082C4.06472 6.71094 4.0498 6.35957 4.0498 6C4.0498 5.64043 4.06472 5.28906 4.09082 4.9502H2.08887ZM4.99414 4.9502C4.96651 5.28477 4.9502 5.63631 4.9502 6C4.9502 6.36369 4.96651 6.71523 4.99414 7.0498H7.00586C7.03349 6.71523 7.0498 6.36369 7.0498 6C7.0498 5.63631 7.03349 5.28477 7.00586 4.9502H4.99414ZM7.90918 4.9502C7.93528 5.28906 7.9502 5.64043 7.9502 6C7.9502 6.35957 7.93528 6.71094 7.90918 7.0498H9.91113C10.0008 6.7149 10.0498 6.3632 10.0498 6C10.0498 5.6368 10.0008 5.2851 9.91113 4.9502H7.90918ZM4.71777 2.1582C3.74543 2.48255 2.93728 3.16503 2.4502 4.0498H4.19336C4.2717 3.54076 4.37924 3.07614 4.5127 2.67578C4.57369 2.49281 4.64315 2.31962 4.71777 2.1582ZM6 1.9502C5.98988 1.9502 5.90848 1.9556 5.76953 2.13184C5.63453 2.30314 5.49317 2.57916 5.36621 2.95996C5.26182 3.27315 5.17419 3.64097 5.10547 4.0498H6.89453C6.82581 3.64097 6.73818 3.27315 6.63379 2.95996C6.50683 2.57916 6.36547 2.30314 6.23047 2.13184C6.09152 1.9556 6.01012 1.9502 6 1.9502ZM7.28125 2.1582C7.35594 2.31973 7.42627 2.49267 7.4873 2.67578C7.62076 3.07614 7.7283 3.54076 7.80664 4.0498H9.5498C9.06257 3.16477 8.25398 2.48243 7.28125 2.1582Z" fill="var(--fill-0, black)" fill-opacity="0.45"/>
</g>
</svg>
