<svg width="280" height="48" viewBox="0 0 280 48" fill="none" xmlns="http://www.w3.org/2000/svg">
<path fill-rule="evenodd" clip-rule="evenodd" d="M138.601 44.8032H131.73V41.5064C129.81 43.3667 126.873 44.9831 122.912 44.9831C114.114 44.9829 108.224 39.1717 108.042 30.064L108.038 29.6392C108.038 20.2815 113.975 14.2846 122.912 14.2844C126.629 14.2844 129.87 15.7245 131.73 17.7611V3.97375H138.601V44.8032ZM123.209 20.6413C117.988 20.6413 114.511 24.4784 114.511 29.6392C114.511 34.8001 117.988 38.637 123.209 38.637C128.43 38.637 131.846 34.8 131.846 29.6392C131.846 24.4821 128.43 20.6413 123.209 20.6413Z" fill="#212121"/>
<path d="M41.2235 9.67101C42.4237 6.54301 44.3178 2.4285 50.0861 3.06599C55.7083 3.97364 56.6688 7.60796 56.6688 15.5105V38.1605H61.9763V44.8108H49.97V12.3452C49.97 10.3199 48.3088 9.67089 47.4611 12.1761L36.2988 44.8108H25.3023L25.3731 12.409C25.3731 10.3386 23.7381 9.58456 22.8342 12.1761L11.6534 44.8108H11.6496L5.46875 42.0352L16.758 9.67101C18.0182 6.43046 19.819 2.47714 25.4337 3.06599C31.1532 3.97372 32.0496 7.65311 32.0496 15.5105L31.9935 36.6155L41.2235 9.67101Z" fill="#212121"/>
<path d="M72.3093 44.8108H65.712V14.8994H72.3093V44.8108Z" fill="#212121"/>
<path d="M92.2246 14.4637C99.662 14.4637 104.118 18.8409 104.118 26.8183V44.8102H97.5206V28.2587C97.5205 22.9817 94.9216 20.7013 90.8447 20.7013C86.2878 20.7013 84.0069 23.8218 84.0069 28.2587V44.8102H77.4102V14.8988H84.0069V18.2408C85.3871 16.4406 88.084 14.4638 92.2246 14.4637Z" fill="#212121"/>
<path d="M69.0419 3.03218C71.3786 3.03218 73.2579 4.91142 73.2579 7.30433C73.2578 9.69713 71.3785 11.5758 69.0419 11.5758C66.7054 11.5758 64.8267 9.69713 64.8265 7.30433C64.8265 4.91142 66.7053 3.03219 69.0419 3.03218Z" fill="#212121"/>
<path d="M231.981 14.4869C236.658 14.487 240.199 16.2269 242.955 19.0436L238.098 23.4204C236.598 21.8002 234.622 20.7201 231.981 20.7201C226.824 20.7201 223.343 24.437 223.343 29.8378C223.343 35.2388 226.82 38.9556 231.981 38.9556C237.142 38.9555 240.679 35.2387 240.679 29.8378H247.276C247.276 38.5955 240.679 45.1931 231.981 45.1932C223.419 45.1932 216.835 38.8583 216.631 30.2493L216.626 29.8417C216.626 21.0239 223.164 14.4869 231.981 14.4869Z" fill="#212121"/>
<path fill-rule="evenodd" clip-rule="evenodd" d="M197.385 14.4869C201.342 14.4869 204.703 16.3471 205.963 17.9636V14.8429H212.68V44.8296H205.963V41.7089C204.703 43.3292 201.406 45.1856 197.385 45.1856C188.942 45.1855 182.533 39.0255 182.335 30.2506L182.33 29.8417C182.33 20.844 188.807 14.487 197.385 14.4869ZM197.622 20.8438C192.761 20.8438 188.804 24.3208 188.804 29.8417C188.804 35.3626 192.641 38.8395 197.622 38.8395C202.602 38.8394 206.199 35.3625 206.199 29.8417C206.199 24.3246 202.482 20.8439 197.622 20.8438Z" fill="#212121"/>
<path d="M256.428 24.1444L266.446 14.8467H275.098L266.682 23.5633L277 44.8366H269.503L261.776 28.1014L256.428 33.0523V44.8366H249.83V3.98486H256.428V24.1444Z" fill="#212121"/>
<path d="M174.637 10.41L159.346 20.4317H165.265C177.683 20.4317 178.977 29.1819 178.977 32.97C178.977 36.9156 177.586 40.096 174.953 42.1701C172.158 44.3717 168.704 44.8328 166.3 44.8328H146.913V38.6858H164.541L165.981 38.682C171.997 38.682 172.365 34.4924 172.365 32.9509C172.365 31.3309 172.45 26.1893 164.025 26.1628H146.913V20.4387H149.19L164.575 10.2671H148.106V4.004H174.637V10.41Z" fill="#212121"/>
<path d="M11.6499 3.96973H5V44.8067H11.6499V3.96973Z" fill="#78AAFA"/>
<path d="M149.189 4.00366H142.543V44.8332H149.189V4.00366Z" fill="#78AAFA"/>
</svg>
