<svg width="270" height="52" viewBox="0 0 270 52" fill="none" xmlns="http://www.w3.org/2000/svg">
<g clip-path="url(#clip0_1441_2553)">
<path d="M12.04 39.32C10.0133 39.32 8.29333 38.84 6.88 37.88C5.46667 36.92 4.38667 35.64 3.64 34.04C2.92 32.4133 2.56 30.6 2.56 28.6C2.56 26.6 2.93333 24.8 3.68 23.2C4.42667 21.5733 5.50667 20.2933 6.92 19.36C8.33333 18.4 10.04 17.92 12.04 17.92C13.2933 17.92 14.5333 18.24 15.76 18.88C16.9867 19.4933 17.92 20.3333 18.56 21.4V9.84H21.6V39H18.56V35.84C18.1333 36.8 17.3067 37.6267 16.08 38.32C14.88 38.9867 13.5333 39.32 12.04 39.32ZM12.32 36.56C14.2667 36.56 15.84 35.84 17.04 34.4C18.24 32.9333 18.84 31 18.84 28.6C18.84 26.2267 18.24 24.32 17.04 22.88C15.84 21.4133 14.2667 20.68 12.32 20.68C10.3467 20.68 8.76 21.4133 7.56 22.88C6.36 24.32 5.76 26.2267 5.76 28.6C5.76 30.9733 6.36 32.8933 7.56 34.36C8.76 35.8267 10.3467 36.56 12.32 36.56ZM36.7444 39.32C34.8244 39.32 33.1177 38.8667 31.6244 37.96C30.1577 37.0267 28.9977 35.76 28.1444 34.16C27.291 32.5333 26.8644 30.68 26.8644 28.6C26.8644 26.52 27.291 24.68 28.1444 23.08C28.9977 21.48 30.1577 20.2267 31.6244 19.32C33.1177 18.3867 34.8244 17.92 36.7444 17.92C38.6644 17.92 40.371 18.3733 41.8644 19.28C43.3577 20.1867 44.531 21.4533 45.3844 23.08C46.2377 24.68 46.6644 26.52 46.6644 28.6C46.6644 30.68 46.2377 32.5333 45.3844 34.16C44.531 35.76 43.3577 37.0267 41.8644 37.96C40.371 38.8667 38.6644 39.32 36.7444 39.32ZM36.7444 36.56C38.1044 36.56 39.291 36.2133 40.3044 35.52C41.3177 34.8267 42.1044 33.88 42.6644 32.68C43.251 31.48 43.5444 30.12 43.5444 28.6C43.5444 27.0533 43.251 25.6933 42.6644 24.52C42.1044 23.32 41.3044 22.3867 40.2644 21.72C39.251 21.0267 38.0777 20.68 36.7444 20.68C35.411 20.68 34.2377 21.0267 33.2244 21.72C32.211 22.3867 31.4244 23.32 30.8644 24.52C30.3044 25.6933 30.0244 27.0533 30.0244 28.6C30.0244 30.1467 30.3044 31.52 30.8644 32.72C31.4244 33.92 32.211 34.8667 33.2244 35.56C34.2377 36.2267 35.411 36.56 36.7444 36.56ZM66.54 39.32C63.7133 39.32 61.54 38.6267 60.02 37.24C58.5 35.8533 57.74 33.8933 57.74 31.36V20.92H51.62V18.24H57.74V11.88H60.86V18.24H70.22V20.92H60.78V31.36C60.78 33.0133 61.2867 34.2933 62.3 35.2C63.3133 36.1067 64.7133 36.56 66.5 36.56C67.3533 36.56 68.1133 36.5067 68.78 36.4C69.4467 36.2933 70.0467 36.16 70.58 36V38.76C70.0467 38.8933 69.4333 39.0133 68.74 39.12C68.0467 39.2533 67.3133 39.32 66.54 39.32ZM86.2053 39.32C84.3653 39.32 82.7786 39.0133 81.4453 38.4C80.112 37.76 79.0586 36.9067 78.2853 35.84C77.5386 34.7467 77.1253 33.5467 77.0453 32.24H80.1653C80.272 33.3867 80.8186 34.4 81.8053 35.28C82.792 36.1333 84.2586 36.56 86.2053 36.56C87.8586 36.56 89.1653 36.2533 90.1253 35.64C91.0853 35 91.5653 34.1333 91.5653 33.04C91.5653 32.2667 91.272 31.6533 90.6853 31.2C90.1253 30.7467 89.272 30.3867 88.1253 30.12L83.6053 29.16C81.9253 28.7867 80.5653 28.2133 79.5253 27.44C78.4853 26.64 77.9653 25.3867 77.9653 23.68C77.9653 22.5867 78.2986 21.6133 78.9653 20.76C79.632 19.88 80.552 19.1867 81.7253 18.68C82.8986 18.1733 84.2453 17.92 85.7653 17.92C88.3253 17.92 90.312 18.4933 91.7253 19.64C93.1386 20.76 93.9786 22.2267 94.2453 24.04H91.0853C90.9253 23.0267 90.392 22.2133 89.4853 21.6C88.5786 20.96 87.3386 20.64 85.7653 20.64C84.3786 20.64 83.2586 20.92 82.4053 21.48C81.552 22.04 81.1253 22.7733 81.1253 23.68C81.1253 24.3467 81.3786 24.8933 81.8853 25.32C82.392 25.7467 83.2186 26.0933 84.3653 26.36L89.1653 27.36C90.2853 27.6 91.2586 27.9333 92.0853 28.36C92.912 28.76 93.552 29.3333 94.0053 30.08C94.4853 30.8 94.7253 31.7867 94.7253 33.04C94.7253 34.9333 93.952 36.4533 92.4053 37.6C90.8853 38.7467 88.8186 39.32 86.2053 39.32ZM125.534 39V10.16H133.094C135.441 10.16 137.561 10.7333 139.454 11.88C141.374 13 142.894 14.64 144.014 16.8C145.134 18.9333 145.694 21.52 145.694 24.56C145.694 27.6 145.134 30.2 144.014 32.36C142.894 34.52 141.374 36.1733 139.454 37.32C137.561 38.44 135.441 39 133.094 39H125.534ZM133.014 36.04C134.641 36.04 136.161 35.6533 137.574 34.88C138.987 34.08 140.134 32.84 141.014 31.16C141.894 29.4533 142.334 27.2533 142.334 24.56C142.334 21.8667 141.894 19.68 141.014 18C140.134 16.32 138.987 15.0933 137.574 14.32C136.161 13.52 134.641 13.12 133.014 13.12H128.814V36.04H133.014ZM153.798 28.92C153.878 31.32 154.545 33.2 155.798 34.56C157.052 35.92 158.692 36.6 160.718 36.6C162.238 36.6 163.558 36.24 164.678 35.52C165.825 34.8 166.518 33.7733 166.758 32.44H169.718C169.345 34.7067 168.318 36.4267 166.638 37.6C164.958 38.7467 162.972 39.32 160.678 39.32C158.652 39.32 156.878 38.8533 155.358 37.92C153.865 36.96 152.705 35.6667 151.878 34.04C151.078 32.4133 150.678 30.6 150.678 28.6C150.678 26.6 151.078 24.8 151.878 23.2C152.705 21.5733 153.852 20.2933 155.318 19.36C156.812 18.4 158.572 17.92 160.598 17.92C162.518 17.92 164.172 18.3467 165.558 19.2C166.945 20.0533 168.012 21.2133 168.758 22.68C169.532 24.12 169.905 25.76 169.878 27.6C169.878 27.92 169.865 28.1867 169.838 28.4C169.838 28.6133 169.825 28.7867 169.798 28.92H153.798ZM160.598 20.56C158.812 20.56 157.345 21.0933 156.198 22.16C155.052 23.2 154.318 24.6133 153.998 26.4H166.598C166.492 24.72 165.918 23.3333 164.878 22.24C163.838 21.12 162.412 20.56 160.598 20.56ZM185.343 39.32C183.503 39.32 181.916 39.0133 180.583 38.4C179.249 37.76 178.196 36.9067 177.423 35.84C176.676 34.7467 176.263 33.5467 176.183 32.24H179.303C179.409 33.3867 179.956 34.4 180.943 35.28C181.929 36.1333 183.396 36.56 185.343 36.56C186.996 36.56 188.303 36.2533 189.263 35.64C190.223 35 190.703 34.1333 190.703 33.04C190.703 32.2667 190.409 31.6533 189.823 31.2C189.263 30.7467 188.409 30.3867 187.263 30.12L182.743 29.16C181.063 28.7867 179.703 28.2133 178.663 27.44C177.623 26.64 177.103 25.3867 177.103 23.68C177.103 22.5867 177.436 21.6133 178.103 20.76C178.769 19.88 179.689 19.1867 180.863 18.68C182.036 18.1733 183.383 17.92 184.903 17.92C187.463 17.92 189.449 18.4933 190.863 19.64C192.276 20.76 193.116 22.2267 193.383 24.04H190.223C190.063 23.0267 189.529 22.2133 188.623 21.6C187.716 20.96 186.476 20.64 184.903 20.64C183.516 20.64 182.396 20.92 181.543 21.48C180.689 22.04 180.263 22.7733 180.263 23.68C180.263 24.3467 180.516 24.8933 181.023 25.32C181.529 25.7467 182.356 26.0933 183.503 26.36L188.303 27.36C189.423 27.6 190.396 27.9333 191.223 28.36C192.049 28.76 192.689 29.3333 193.143 30.08C193.623 30.8 193.863 31.7867 193.863 33.04C193.863 34.9333 193.089 36.4533 191.543 37.6C190.023 38.7467 187.956 39.32 185.343 39.32ZM200.127 39V36.32H208.207V20.92H201.447V18.24H211.287V36.32H219.367V39H200.127ZM207.927 14.36V10.16H211.567V14.36H207.927ZM234.672 46.8C231.978 46.8 229.872 46.2 228.352 45C226.832 43.8267 225.965 42.1067 225.752 39.84H228.832C228.992 41.2267 229.552 42.28 230.512 43C231.498 43.7467 232.885 44.12 234.672 44.12C236.592 44.12 238.112 43.6 239.232 42.56C240.352 41.52 240.912 40.0267 240.912 38.08V35.08C240.432 35.9867 239.592 36.72 238.392 37.28C237.192 37.8133 235.885 38.08 234.472 38.08C232.498 38.08 230.805 37.64 229.392 36.76C228.005 35.88 226.938 34.68 226.192 33.16C225.472 31.64 225.112 29.9333 225.112 28.04C225.112 26.12 225.472 24.4 226.192 22.88C226.938 21.36 228.005 20.16 229.392 19.28C230.778 18.3733 232.458 17.92 234.432 17.92C235.765 17.92 237.018 18.2267 238.192 18.84C239.392 19.4533 240.298 20.24 240.912 21.2V18.24H243.952V37.84C243.952 40.72 243.125 42.9333 241.472 44.48C239.818 46.0267 237.552 46.8 234.672 46.8ZM234.752 35.32C236.672 35.32 238.218 34.6667 239.392 33.36C240.565 32.0267 241.152 30.2533 241.152 28.04C241.152 25.8267 240.565 24.0533 239.392 22.72C238.218 21.36 236.672 20.68 234.752 20.68C232.778 20.68 231.205 21.36 230.032 22.72C228.885 24.0533 228.312 25.8267 228.312 28.04C228.312 30.2533 228.885 32.0267 230.032 33.36C231.205 34.6667 232.778 35.32 234.752 35.32ZM250.496 39V18.24H253.536V22.36C254.336 20.9733 255.363 19.8933 256.616 19.12C257.869 18.32 259.269 17.92 260.816 17.92C262.256 17.92 263.523 18.2267 264.616 18.84C265.736 19.4267 266.603 20.2667 267.216 21.36C267.856 22.4533 268.176 23.7333 268.176 25.2V39H265.136V25.68C265.136 24.24 264.696 23.0533 263.816 22.12C262.963 21.1867 261.776 20.72 260.256 20.72C258.229 20.72 256.603 21.5467 255.376 23.2C254.149 24.8267 253.536 27.0533 253.536 29.88V39H250.496Z" fill="black"/>
</g>
<defs>
<clipPath id="clip0_1441_2553">
<rect width="270" height="52" fill="white"/>
</clipPath>
</defs>
</svg>
