<svg xmlns="http://www.w3.org/2000/svg" style="display:none">
  <symbol id="ar" viewBox="0 0 24 24"><path d="M7 9.5L12 12M12 17L17 14.5V9.5L12 7L7 9.5V14.5L12 17ZM12 12L17 9.5M12 12V17M8 4H6C4.89543 4 4 4.89543 4 6V8M8 20H6C4.89543 20 4 19.1046 4 18V16M16 4H18C19.1046 4 20 4.89543 20 6V8M16 20H18C19.1046 20 20 19.1046 20 18V16" stroke="#212121" stroke-width="1.8" stroke-linecap="round" stroke-linejoin="round"/></symbol>
  <symbol id="event_tracking" viewBox="0 0 24 24"><g clip-path="url(#clip0_12420_103663)">
<path d="M6.39999 8.16821L16.4851 4.47853C18.0132 3.91949 18.7772 3.63996 19.2783 3.81033C19.714 3.95844 20.0576 4.29834 20.2104 4.73238C20.3862 5.23163 20.1149 5.99864 19.5724 7.53264L15.9677 17.7253C15.1826 19.9452 14.79 21.0552 14.2523 21.3265C13.7876 21.5609 13.2347 21.5377 12.7914 21.2653C12.2782 20.9499 11.9799 19.811 11.3833 17.5331L10.7276 15.0295C10.595 14.523 10.5286 14.2697 10.3941 14.0646C10.2751 13.8831 10.1181 13.7296 9.93398 13.6147C9.72585 13.4847 9.47117 13.4241 8.96182 13.3028L8.96181 13.3028L6.66869 12.7568C4.33599 12.2014 3.16963 11.9237 2.84302 11.4141C2.5609 10.9739 2.52838 10.4185 2.75719 9.94833C3.02208 9.40403 4.14805 8.99209 6.39999 8.16821Z" fill="#37B0BF"/>
</g>
<defs>
<clipPath id="clip0_12420_103663">
<rect width="24" height="24" fill="white"/>
</clipPath>
</defs></symbol>
  <symbol id="intelligent_summarization" viewBox="0 0 24 24"><path d="M18.5557 11.714L20.4949 13.0438C21.6619 13.844 21.1735 15.6668 19.7627 15.7764L17.4184 15.9584C15.3077 16.1223 13.3846 17.2326 12.1873 18.9786L10.8575 20.9178C10.0572 22.0848 8.23444 21.5964 8.12489 20.1856L7.94286 17.8413C7.77897 15.7306 6.66864 13.8075 4.92267 12.6102L2.98346 11.2804C1.81646 10.4801 2.30487 8.65734 3.71565 8.5478L6.05996 8.36576C8.17065 8.20187 10.0938 7.09155 11.2911 5.34557L12.6209 3.40636C13.4211 2.23936 15.2439 2.72777 15.3535 4.13855L15.5355 6.48286C15.6994 8.59356 16.8097 10.5167 18.5557 11.714Z" fill="#70A0EC"/></symbol>
  <symbol id="to-do_items" viewBox="0 0 24 24"><path d="M5 4.5C5 3.67157 5.67157 3 6.5 3H17.5C18.3284 3 19 3.67157 19 4.5V19.5708C19 20.8789 17.4424 21.5602 16.4818 20.6723L13.0182 17.4706C12.4434 16.9393 11.5566 16.9393 10.9818 17.4706L7.51819 20.6723C6.55759 21.5602 5 20.8789 5 19.5708V4.5Z" fill="#A17DC6"/></symbol>
  <symbol id="travel_log" viewBox="0 0 24 24"><path d="M4 5.32417C4 4.56769 4.5633 3.92959 5.31395 3.83576L14.3139 2.71076C15.2092 2.59885 16 3.29693 16 4.19917V19.8008C16 20.7031 15.2092 21.4012 14.3139 21.2892L5.31395 20.1642C4.5633 20.0704 4 19.4323 4 18.6758V5.32417Z" fill="#916964"/>
<path d="M17 4.5H17.5C18.3284 4.5 19 5.17157 19 6V18C19 18.8284 18.3284 19.5 17.5 19.5H17V4.5Z" fill="#916964"/></symbol>
  <symbol id="add" viewBox="0 0 24 24"><path d="M12 5V19M19 12H5" stroke="#212121" stroke-width="1.8" stroke-linecap="round" stroke-linejoin="round"/></symbol>
  <symbol id="apple" viewBox="0 0 24 24"><path d="M17.5172 12.5552C17.5078 10.9568 18.232 9.75209 19.6945 8.86381C18.8766 7.69193 17.6391 7.0474 16.0078 6.92318C14.4633 6.80131 12.7734 7.82318 12.1547 7.82318C11.5008 7.82318 10.0055 6.96537 8.82891 6.96537C6.40078 7.00287 3.82031 8.90131 3.82031 12.7638C3.82031 13.9052 4.02891 15.0841 4.44609 16.2982C5.00391 17.8966 7.01484 21.813 9.1125 21.7497C10.2094 21.724 10.9852 20.9716 12.4125 20.9716C13.7977 20.9716 14.5148 21.7497 15.7383 21.7497C17.8547 21.7193 19.6734 18.1591 20.2031 16.556C17.3648 15.2177 17.5172 12.6372 17.5172 12.5552ZM17.2687 18.813C16.9336 19.2794 16.5961 19.6474 16.2867 19.8841C16.0406 20.0716 15.8508 20.1513 15.7242 20.156C15.5133 20.1537 15.3094 20.1021 14.9109 19.9497C14.8828 19.938 14.8523 19.9263 14.8125 19.9122C14.7937 19.9052 14.7211 19.8771 14.7094 19.8724C14.3016 19.7154 14.0578 19.631 13.7461 19.549C13.3102 19.4365 12.8766 19.3755 12.4125 19.3755C11.9391 19.3755 11.4938 19.4341 11.0508 19.5443C10.725 19.6263 10.4508 19.7177 10.05 19.8677C10.0336 19.8747 9.86016 19.9404 9.81094 19.9591C9.72891 19.9896 9.66562 20.013 9.60703 20.0341C9.36328 20.1185 9.20859 20.1537 9.07031 20.156C9.05391 20.156 9.03984 20.1537 9.02813 20.1513C9.00234 20.1466 8.96953 20.1372 8.93203 20.1208C8.82656 20.0787 8.7 20.0013 8.55703 19.8912C8.22891 19.6357 7.86797 19.2349 7.5 18.7216C6.85547 17.8169 6.24609 16.6169 5.95312 15.7755C5.59219 14.7255 5.41406 13.7201 5.41406 12.7615C5.41406 11.3505 5.83125 10.2771 6.54844 9.54818C7.16484 8.92474 7.99453 8.57553 8.84063 8.55678C8.97891 8.55912 9.18047 8.59193 9.43594 8.66224C9.6375 8.71615 9.85781 8.78881 10.1555 8.89427C10.2445 8.92709 10.5516 9.03724 10.5891 9.05131C10.7695 9.11693 10.9055 9.16381 11.0391 9.20599C11.4656 9.34193 11.7961 9.41693 12.1547 9.41693C12.518 9.41693 12.8297 9.33959 13.2727 9.18724C13.4391 9.13099 14.0437 8.90599 14.1516 8.86849C14.7516 8.65521 15.1945 8.54037 15.5766 8.51224C15.6891 8.50287 15.7898 8.50287 15.8859 8.5099C16.418 8.55209 16.8727 8.65756 17.2594 8.83334C16.3781 9.85052 15.9234 11.0951 15.9258 12.5458C15.9187 12.8904 15.9469 13.2888 16.0453 13.7599C16.1953 14.4747 16.4812 15.1826 16.9336 15.8458C17.2781 16.3497 17.7047 16.8044 18.2156 17.2005C17.9461 17.756 17.6156 18.3302 17.2687 18.813Z" fill="#212121"/>
<path d="M15.0539 5.40703C16.2422 3.99609 16.1344 2.71172 16.0992 2.25C15.0492 2.31094 13.8352 2.96484 13.1438 3.76875C12.382 4.63125 11.9344 5.69766 12.0305 6.9C13.1649 6.98672 14.2008 6.40312 15.0539 5.40703Z" fill="#212121"/></symbol>
  <symbol id="arrow-back" viewBox="0 0 24 24"><path d="M15 20L7 12L15 4" stroke="#212121" stroke-width="1.8" stroke-linecap="round" stroke-linejoin="round"/></symbol>
  <symbol id="arrow-forward-long" viewBox="0 0 24 24"><path d="M16 17L21 12L16 7M21 12H3" stroke="#212121" stroke-width="1.8" stroke-linecap="round" stroke-linejoin="round"/></symbol>
  <symbol id="arrow-up" viewBox="0 0 24 24"><path d="M12 19V5M18 11L12 5L6 11" stroke="#212121" stroke-width="1.8" stroke-linecap="round" stroke-linejoin="round"/></symbol>
  <symbol id="arrow_down" viewBox="0 0 24 24"><path d="M6 9L11.2929 14.2929C11.6834 14.6834 12.3166 14.6834 12.7071 14.2929L18 9" stroke="#212121" stroke-width="1.8" stroke-linecap="round" stroke-linejoin="round"/></symbol>
  <symbol id="arrow_right" viewBox="0 0 24 24"><path d="M9 20L17 12L9 4" stroke="#212121" stroke-width="1.8" stroke-linecap="round" stroke-linejoin="round"/></symbol>
  <symbol id="arrow_right_small" viewBox="0 0 24 24"><path d="M9 6.59961L14.4 11.9996L9 17.3996" stroke="#212121" stroke-width="1.8" stroke-linecap="round" stroke-linejoin="round"/></symbol>
  <symbol id="arrow_updown" viewBox="0 0 24 24"><path d="M7.5 14.5L11.3356 17.9095C11.7145 18.2462 12.2855 18.2462 12.6644 17.9095L16.5 14.5" stroke="#212121" stroke-width="1.8" stroke-linecap="round" stroke-linejoin="round"/>
<path d="M16.5 9.5L12.6644 6.09055C12.2855 5.75376 11.7145 5.75376 11.3356 6.09055L7.5 9.5" stroke="#212121" stroke-width="1.8" stroke-linecap="round" stroke-linejoin="round"/></symbol>
  <symbol id="attachment" viewBox="0 0 24 24"><path d="M13.815 4.40944C15.6875 2.53019 18.7233 2.53019 20.5957 4.40944C22.4681 6.28869 22.4681 9.33556 20.5957 11.2148L12.6782 19.1612C10.2354 21.6129 6.27486 21.6129 3.83208 19.1612C1.38931 16.7095 1.38931 12.7346 3.83208 10.2829L10.3726 3.71845C10.7241 3.36569 11.294 3.36569 11.6454 3.71845C11.9969 4.0712 11.9969 4.64313 11.6454 4.99588L5.10487 11.5603C3.36504 13.3065 3.36504 16.1376 5.10487 17.8838C6.84471 19.63 9.66553 19.63 11.4054 17.8838L19.3229 9.93738C20.4924 8.76364 20.4924 6.86062 19.3229 5.68688C18.1534 4.51313 16.2573 4.51313 15.0878 5.68688L7.51456 13.2878C6.91544 13.8891 6.91543 14.864 7.51456 15.4653C8.11368 16.0666 9.08504 16.0666 9.68417 15.4653L15.8805 9.24639C16.232 8.89363 16.8018 8.89363 17.1533 9.24639C17.5048 9.59914 17.5048 10.1711 17.1533 10.5238L10.957 16.7428C9.65489 18.0496 7.54383 18.0496 6.24176 16.7428C4.9397 15.4359 4.9397 13.3172 6.24176 12.0104L13.815 4.40944Z" fill="#212121"/></symbol>
  <symbol id="book" viewBox="0 0 24 24"><path d="M19 17V5C19 3.89543 18.1046 3 17 3H7C5.89543 3 5 3.89543 5 5V19M19 17H7C5.89543 17 5 17.8954 5 19M19 17V19C19 20.1046 18.1046 21 17 21H7C5.89543 21 5 20.1046 5 19M10 8H14" stroke="#212121" stroke-width="1.8" stroke-linecap="round" stroke-linejoin="round"/></symbol>
  <symbol id="bubble-chart" viewBox="0 0 24 24"><path d="M12 8.5C12 10.9853 9.98528 13 7.5 13C5.01472 13 3 10.9853 3 8.5C3 6.01472 5.01472 4 7.5 4C9.98528 4 12 6.01472 12 8.5Z" stroke="#212121" stroke-width="1.8" stroke-linecap="round" stroke-linejoin="round"/>
<path d="M17 17C17 18.6569 15.6569 20 14 20C12.3431 20 11 18.6569 11 17C11 15.3431 12.3431 14 14 14C15.6569 14 17 15.3431 17 17Z" stroke="#212121" stroke-width="1.8" stroke-linecap="round" stroke-linejoin="round"/>
<path d="M20 9C20 10.1046 19.1046 11 18 11C16.8954 11 16 10.1046 16 9C16 7.89543 16.8954 7 18 7C19.1046 7 20 7.89543 20 9Z" stroke="#212121" stroke-width="1.8" stroke-linecap="round" stroke-linejoin="round"/></symbol>
  <symbol id="camera" viewBox="0 0 24 24"><path d="M15.0858 3.58579C14.7107 3.21071 14.202 3 13.6716 3H10.3284C9.79799 3 9.28929 3.21071 8.91421 3.58579L8.08579 4.41421C7.71071 4.78929 7.20201 5 6.67157 5H5C3.89543 5 3 5.89543 3 7L3 17C3 18.1046 3.89543 19 5 19H19C20.1046 19 21 18.1046 21 17V7C21 5.89543 20.1046 5 19 5H17.3284C16.798 5 16.2893 4.78929 15.9142 4.41421L15.0858 3.58579Z" stroke="#212121" stroke-width="1.8" stroke-linecap="round" stroke-linejoin="round"/>
<path fill-rule="evenodd" clip-rule="evenodd" d="M12 16C14.2091 16 16 14.2091 16 12C16 9.79086 14.2091 8 12 8C9.79086 8 8 9.79086 8 12C8 14.2091 9.79086 16 12 16Z" stroke="#212121" stroke-width="1.8" stroke-linecap="round" stroke-linejoin="round"/></symbol>
  <symbol id="camera_fill" viewBox="0 0 24 24"><path d="M12 16C13.6569 16 15 14.6569 15 13C15 11.3431 13.6569 10 12 10C10.3431 10 9 11.3431 9 13C9 14.6569 10.3431 16 12 16Z" fill="#212121"/>
<path d="M9.23607 3C8.47852 3 7.786 3.42798 7.44721 4.10559L7 5H5C3.34315 5 2 6.34314 2 8V18C2 19.6569 3.34315 21 5 21H19C20.6569 21 22 19.6569 22 18V8C22 6.34314 20.6569 5 19 5H17L16.5528 4.10559C16.214 3.42798 15.5215 3 14.7639 3H9.23607ZM16.5 13C16.5 15.4853 14.4853 17.5 12 17.5C9.51472 17.5 7.5 15.4853 7.5 13C7.5 10.5147 9.51472 8.5 12 8.5C14.4853 8.5 16.5 10.5147 16.5 13Z" fill="#212121"/></symbol>
  <symbol id="chat_empty" viewBox="0 0 24 24"><path d="M12.2896 17.9985C18.0965 17.9344 21 15.919 21 11.0001C21 6.00006 18 4.00006 12 4.00006C6 4.00006 3 6.00006 3 11.0001C3 14.0772 4.13623 16.018 6.40868 17.0558L5 21.0001L12.2896 17.9985Z" stroke="#212121" stroke-width="1.8" stroke-linecap="round" stroke-linejoin="round"/></symbol>
  <symbol id="cite" viewBox="0 0 24 24"><path fill-rule="evenodd" clip-rule="evenodd" d="M12 21C16.9706 21 21 16.9706 21 12C21 7.02944 16.9706 3 12 3C7.02944 3 3 7.02944 3 12C3 16.9706 7.02944 21 12 21Z" stroke="#212121" stroke-width="1.8" stroke-linecap="round" stroke-linejoin="round"/>
<path d="M10.896 12.9336C11.0617 13.1408 11.055 13.4348 10.8831 13.6368C10.5259 14.0563 10.1231 14.4329 9.6747 14.7666C9.47725 14.9135 9.20816 14.915 9.00822 14.7715C8.47387 14.388 8.02758 13.9696 7.66935 13.5163C7.5581 13.3756 7.5237 13.1899 7.57157 13.017C7.95697 11.6246 8.67427 10.1722 9.72347 8.65981C9.89961 8.4059 10.2469 8.34445 10.5043 8.51541C10.746 8.67595 10.83 8.99039 10.7109 9.25502C10.3656 10.0225 10.103 10.7814 9.92292 11.5316C9.8661 11.7684 9.96632 12.0109 10.1526 12.1677C10.4195 12.3923 10.6673 12.6476 10.896 12.9336ZM15.5689 12.9336C15.7346 13.1408 15.7279 13.4348 15.556 13.6368C15.1988 14.0563 14.796 14.4329 14.3476 14.7666C14.1501 14.9135 13.8811 14.915 13.6811 14.7715C13.1468 14.388 12.7005 13.9696 12.3422 13.5163C12.231 13.3756 12.1966 13.1899 12.2445 13.017C12.6299 11.6246 13.3472 10.1722 14.3964 8.65981C14.5725 8.4059 14.9197 8.34445 15.1772 8.51541C15.4189 8.67595 15.5029 8.99039 15.3838 9.25502C15.0385 10.0225 14.7758 10.7814 14.5958 11.5316C14.539 11.7684 14.6392 12.0109 14.8255 12.1677C15.0924 12.3923 15.3402 12.6476 15.5689 12.9336Z" fill="#212121"/></symbol>
  <symbol id="close" viewBox="0 0 24 24"><path d="M6 6L18 18M18 6L6 18" stroke="#212121" stroke-width="1.8" stroke-linecap="round" stroke-linejoin="round"/></symbol>
  <symbol id="container" viewBox="0 0 24 24"><path d="M16.7992 14.4V7.20001H9.59922M16.7992 7.20001L7.19922 16.8" stroke="#212121" stroke-width="1.8" stroke-linecap="round" stroke-linejoin="round"/></symbol>
  <symbol id="copy-2" viewBox="0 0 24 24"><path d="M9 15H5C3.89543 15 3 14.1046 3 13V5C3 3.89543 3.89543 3 5 3H13C14.1046 3 15 3.89543 15 5V9M11 21H19C20.1046 21 21 20.1046 21 19V11C21 9.89543 20.1046 9 19 9H11C9.89543 9 9 9.89543 9 11V19C9 20.1046 9.89543 21 11 21Z" stroke="#212121" stroke-width="1.8" stroke-linecap="round" stroke-linejoin="round"/></symbol>
  <symbol id="copy" viewBox="0 0 24 24"><path d="M9 15H5C3.89543 15 3 14.1046 3 13V5C3 3.89543 3.89543 3 5 3H13C14.1046 3 15 3.89543 15 5V9M11 21H19C20.1046 21 21 20.1046 21 19V11C21 9.89543 20.1046 9 19 9H11C9.89543 9 9 9.89543 9 11V19C9 20.1046 9.89543 21 11 21Z" stroke="#212121" stroke-width="1.8" stroke-linecap="round" stroke-linejoin="round"/></symbol>
  <symbol id="delete-2" viewBox="0 0 24 24"><path d="M6 7V18C6 19.1046 6.89543 20 8 20H16C17.1046 20 18 19.1046 18 18V7M6 7H5M6 7H8M18 7H19M18 7H16M10 11V16M14 11V16M8 7V5C8 3.89543 8.89543 3 10 3H14C15.1046 3 16 3.89543 16 5V7M8 7H16" stroke="#212121" stroke-width="1.8" stroke-linecap="round" stroke-linejoin="round"/></symbol>
  <symbol id="delete" viewBox="0 0 24 24"><path d="M6 5H18M9 5C10.5769 3.16026 13.4231 3.16026 15 5M9 20H15C16.1046 20 17 19.1046 17 18V9C17 8.44772 16.5523 8 16 8H8C7.44772 8 7 8.44772 7 9V18C7 19.1046 7.89543 20 9 20Z" stroke="#212121" stroke-width="1.8" stroke-linecap="round" stroke-linejoin="round"/></symbol>
  <symbol id="doc" viewBox="0 0 24 24"><path d="M5.14286 6.66681C5.77404 6.66681 6.28571 7.20407 6.28571 7.86681V14.5699L11.1919 9.41846C11.6382 8.94983 12.3618 8.94983 12.8081 9.41846L17.7143 14.5699V7.86681C17.7143 7.20407 18.226 6.66681 18.8571 6.66681C19.4883 6.66681 20 7.20407 20 7.86681V17.4666C20 18.5357 18.769 19.0711 18.049 18.3152L12 11.9637L5.95098 18.3152C5.23102 19.0711 4 18.5357 4 17.4666V7.86681C4 7.20407 4.51167 6.66681 5.14286 6.66681Z" fill="#212121"/></symbol>
  <symbol id="down" viewBox="0 0 24 24"><path d="M5 13.25L9.5 17.75L19.25 8" stroke="#212121" stroke-width="1.8" stroke-linecap="round" stroke-linejoin="round"/></symbol>
  <symbol id="download-1" viewBox="0 0 24 24"><path d="M7 12L12 17L17 12M12 17V4M17 20H7" stroke="#212121" stroke-width="2" stroke-linecap="round" stroke-linejoin="round"/></symbol>
  <symbol id="edit-02" viewBox="0 0 24 24"><path d="M15 6.5L17.5 9M11 20H20M4 20V17.5L16.75 4.75C17.4404 4.05964 18.5596 4.05964 19.25 4.75C19.9404 5.44036 19.9404 6.55964 19.25 7.25L6.5 20H4Z" stroke="#212121" stroke-width="1.8" stroke-linecap="round" stroke-linejoin="round"/></symbol>
  <symbol id="edit" viewBox="0 0 24 24"><path d="M15 6.5L17.5 9M4 20V17.5L16.75 4.75C17.4404 4.05964 18.5596 4.05964 19.25 4.75C19.9404 5.44036 19.9404 6.55964 19.25 7.25L6.5 20H4Z" stroke="#212121" stroke-width="2" stroke-linecap="round" stroke-linejoin="round"/></symbol>
  <symbol id="external_link" viewBox="0 0 24 24"><path d="M10 4H6C4.89543 4 4 4.89543 4 6V18C4 19.1046 4.89543 20 6 20H18C19.1046 20 20 19.1046 20 18V14M11 13L20 4M15 4H20V9" stroke="#212121" stroke-width="1.8" stroke-linecap="round" stroke-linejoin="round"/></symbol>
  <symbol id="flag-alt" viewBox="0 0 24 24"><path d="M6 5L23 10L6 15M6 3V21" stroke="#212121" stroke-width="1.8" stroke-linecap="round" stroke-linejoin="round"/></symbol>
  <symbol id="flash_auto" viewBox="0 0 24 24"><path d="M12 3.81818C7.48131 3.81818 3.81818 7.48131 3.81818 12C3.81818 16.5187 7.48131 20.1818 12 20.1818C12.9462 20.1818 13.853 20.0216 14.696 19.7275C15.1701 19.5621 15.6884 19.8124 15.8538 20.2864C16.0192 20.7605 15.7689 21.2788 15.2949 21.4442C14.262 21.8045 13.1529 22 12 22C6.47715 22 2 17.5228 2 12C2 6.47715 6.47715 2 12 2C17.5228 2 22 6.47715 22 12C22 12.5021 21.593 12.9091 21.0909 12.9091C20.5888 12.9091 20.1818 12.5021 20.1818 12C20.1818 7.48131 16.5187 3.81818 12 3.81818Z" fill="#212121"/>
<path d="M12.5561 6.12275C12.9855 6.3732 13.1305 6.92428 12.88 7.35363L10.4469 11.143H15.1026C15.4249 11.143 15.7225 11.3153 15.8831 11.5947C16.0436 11.8742 16.0424 12.2181 15.88 12.4965L12.88 17.6393C12.6296 18.0687 12.0785 18.2137 11.6491 17.9633C11.2198 17.7128 11.0748 17.1617 11.3252 16.7324L13.5357 12.943H8.88001C8.55775 12.943 8.26009 12.7707 8.09958 12.4913C7.93908 12.2118 7.94023 11.8679 8.10261 11.5895L11.3252 6.44666C11.5757 6.01732 12.1268 5.87229 12.5561 6.12275Z" fill="#212121"/>
<path d="M17.0049 18.614L17.1414 18.3574H20.1696L20.3061 18.614C20.5395 19.0529 21.0844 19.2195 21.5233 18.9862C21.9622 18.7528 22.1288 18.2079 21.8954 17.769L19.4542 13.1777C19.2921 12.8729 18.9797 12.6994 18.657 12.7C18.3332 12.6983 18.0194 12.8719 17.8568 13.1777L15.4156 17.769C15.1822 18.2079 15.3488 18.7528 15.7877 18.9862C16.2266 19.2195 16.7715 19.0529 17.0049 18.614ZM18.6555 15.5097L19.2125 16.5574H18.0984L18.6555 15.5097Z" fill="#212121"/></symbol>
  <symbol id="flash_off" viewBox="0 0 24 24"><path d="M3.81818 12C3.81818 7.48131 7.48131 3.81818 12 3.81818C16.5187 3.81818 20.1818 7.48131 20.1818 12C20.1818 12.5021 20.5888 12.9091 21.0909 12.9091C21.593 12.9091 22 12.5021 22 12C22 6.47715 17.5228 2 12 2C6.47715 2 2 6.47715 2 12C2 17.5228 6.47715 22 12 22C13.1529 22 14.262 21.8045 15.2949 21.4442C15.7689 21.2788 16.0192 20.7605 15.8538 20.2864C15.6884 19.8124 15.1701 19.5621 14.696 19.7275C13.853 20.0216 12.9462 20.1818 12 20.1818C7.48131 20.1818 3.81818 16.5187 3.81818 12Z" fill="#212121"/>
<path d="M12.5561 6.12275C12.9855 6.3732 13.1305 6.92428 12.88 7.35363L10.4469 11.143H15.1026C15.4249 11.143 15.7225 11.3153 15.8831 11.5947C16.0436 11.8742 16.0424 12.2181 15.88 12.4965L12.88 17.6393C12.6296 18.0687 12.0785 18.2137 11.6491 17.9633C11.2198 17.7128 11.0748 17.1617 11.3252 16.7324L13.5357 12.943H8.88001C8.55775 12.943 8.26009 12.7707 8.09958 12.4913C7.93908 12.2118 7.94023 11.8679 8.10261 11.5895L11.3252 6.44666C11.5757 6.01732 12.1268 5.87229 12.5561 6.12275Z" fill="#212121"/>
<path d="M21.2134 15.5364C21.5648 15.1849 21.5648 14.6151 21.2134 14.2636C20.8619 13.9121 20.292 13.9121 19.9406 14.2636L18.737 15.4671L17.5364 14.2665C17.1849 13.915 16.6151 13.915 16.2636 14.2665C15.9121 14.618 15.9121 15.1878 16.2636 15.5393L17.4643 16.7399L16.2636 17.9406C15.9121 18.292 15.9121 18.8619 16.2636 19.2134C16.6151 19.5648 17.1849 19.5648 17.5364 19.2134L18.737 18.0127L19.9406 19.2162C20.292 19.5677 20.8619 19.5677 21.2134 19.2162C21.5648 18.8648 21.5648 18.2949 21.2134 17.9434L20.0098 16.7399L21.2134 15.5364Z" fill="#212121"/></symbol>
  <symbol id="flash_on" viewBox="0 0 24 24"><path d="M12.88 7.31063C13.1305 6.88128 12.9854 6.33019 12.5561 6.07974C12.1267 5.82929 11.5757 5.97431 11.3252 6.40366L8.10259 11.5465C7.94021 11.8249 7.93906 12.1688 8.09956 12.4483C8.26007 12.7277 8.55773 12.9 8.87999 12.9H13.5357L11.3252 16.6894C11.0748 17.1187 11.2198 17.6698 11.6491 17.9203C12.0785 18.1707 12.6296 18.0257 12.88 17.5963L15.88 12.4535C16.0424 12.1751 16.0435 11.8312 15.883 11.5517C15.7225 11.2723 15.4249 11.1 15.1026 11.1H10.4469L12.88 7.31063Z" fill="#212121"/>
<path d="M22 12C22 6.47715 17.5228 2 12 2C6.47715 2 2 6.47715 2 12C2 17.5228 6.47715 22 12 22C17.5228 22 22 17.5228 22 12ZM20.2 12C20.2 16.5287 16.5287 20.2 12 20.2C7.47126 20.2 3.8 16.5287 3.8 12C3.8 7.47126 7.47126 3.8 12 3.8C16.5287 3.8 20.2 7.47126 20.2 12Z" fill="#212121"/></symbol>
  <symbol id="heart" viewBox="0 0 24 24"><path d="M19.5355 5.46448C21.4881 7.4171 21.4881 10.5829 19.5355 12.5355L12 20.0711L4.46447 12.5355C2.51184 10.5829 2.51184 7.4171 4.46447 5.46448C6.0168 3.91215 7.89056 3.43683 9.78125 4.35939C10.5317 4.72556 11.5156 5.46448 12 6.4297C12.4844 5.46448 13.4683 4.72556 14.2187 4.35939C16.1094 3.43683 17.9832 3.91215 19.5355 5.46448Z" stroke="#212121" stroke-width="1.8" stroke-linecap="round" stroke-linejoin="round"/></symbol>
  <symbol id="inbox" viewBox="0 0 24 24"><path d="M20 14H15C15 15.6569 13.6569 17 12 17C10.3431 17 9 15.6569 9 14H4M6 20H18C19.1046 20 20 19.1046 20 18V6C20 4.89543 19.1046 4 18 4H6C4.89543 4 4 4.89543 4 6V18C4 19.1046 4.89543 20 6 20Z" stroke="#212121" stroke-width="1.8" stroke-linecap="round" stroke-linejoin="round"/></symbol>
  <symbol id="keyboard_down" viewBox="0 0 24 24"><path d="M6 8.5C6 8.22386 6.22386 8 6.5 8H7.5C7.77614 8 8 8.22386 8 8.5V9.5C8 9.77614 7.77614 10 7.5 10H6.5C6.22386 10 6 9.77614 6 9.5V8.5Z" fill="#212121"/>
<path d="M9.3 8.5C9.3 8.22386 9.52386 8 9.8 8H10.8C11.0761 8 11.3 8.22386 11.3 8.5V9.5C11.3 9.77614 11.0761 10 10.8 10H9.8C9.52386 10 9.3 9.77614 9.3 9.5V8.5Z" fill="#212121"/>
<path d="M9.8 11C9.52386 11 9.3 11.2239 9.3 11.5V12.5C9.3 12.7761 9.52386 13 9.8 13H14.2C14.4761 13 14.7 12.7761 14.7 12.5V11.5C14.7 11.2239 14.4761 11 14.2 11H9.8Z" fill="#212121"/>
<path d="M6 11.5C6 11.2239 6.22386 11 6.5 11H7.5C7.77614 11 8 11.2239 8 11.5V12.5C8 12.7761 7.77614 13 7.5 13H6.5C6.22386 13 6 12.7761 6 12.5V11.5Z" fill="#212121"/>
<path d="M13.2 8C12.9239 8 12.7 8.22386 12.7 8.5V9.5C12.7 9.77614 12.9239 10 13.2 10H14.2C14.4761 10 14.7 9.77614 14.7 9.5V8.5C14.7 8.22386 14.4761 8 14.2 8H13.2Z" fill="#212121"/>
<path d="M16 8.5C16 8.22386 16.2239 8 16.5 8H17.5C17.7761 8 18 8.22386 18 8.5V9.5C18 9.77614 17.7761 10 17.5 10H16.5C16.2239 10 16 9.77614 16 9.5V8.5Z" fill="#212121"/>
<path d="M16.5 11C16.2239 11 16 11.2239 16 11.5V12.5C16 12.7761 16.2239 13 16.5 13H17.5C17.7761 13 18 12.7761 18 12.5V11.5C18 11.2239 17.7761 11 17.5 11H16.5Z" fill="#212121"/>
<path d="M12.3603 16.8756C12.1636 17.08 11.8364 17.08 11.6397 16.8756L10.6497 15.8467C10.344 15.529 10.5691 15 11.01 15H12.99C13.4309 15 13.656 15.529 13.3503 15.8467L12.3603 16.8756Z" fill="#212121"/>
<path d="M2 8C2 5.79086 3.79086 4 6 4H18C20.2091 4 22 5.79086 22 8V16C22 18.2091 20.2091 20 18 20H6C3.79086 20 2 18.2091 2 16V8ZM6 5.8C4.78497 5.8 3.8 6.78497 3.8 8V16C3.8 17.215 4.78497 18.2 6 18.2H18C19.215 18.2 20.2 17.215 20.2 16V8C20.2 6.78497 19.215 5.8 18 5.8H6Z" fill="#212121"/></symbol>
  <symbol id="keynote" viewBox="0 0 24 24"><path d="M19.2412 12.3333H4.75884C4.38945 12.3333 4.13192 11.9669 4.25703 11.6193L6.27303 6.01931C6.34921 5.8077 6.54994 5.66663 6.77484 5.66663H17.2252C17.4501 5.66663 17.6508 5.8077 17.727 6.01931L19.743 11.6193C19.8681 11.9669 19.6105 12.3333 19.2412 12.3333Z" fill="#212121" stroke="#212121" stroke-width="1.33333" stroke-linecap="round"/>
<path d="M12 15.0001V17.6668" stroke="#212121" stroke-width="2" stroke-linecap="round"/>
<path d="M14.668 18.3335H9.33464" stroke="#212121" stroke-width="2" stroke-linecap="round"/></symbol>
  <symbol id="link" viewBox="0 0 24 24"><path d="M13.4147 13.4142C11.8526 14.9763 9.31991 14.9763 7.75781 13.4142L4.92939 10.5858C3.36729 9.02371 3.36729 6.49105 4.92939 4.92895C6.49148 3.36685 9.02414 3.36685 10.5862 4.92895L12.0005 6.34317M10.5862 10.5858C12.1483 9.02371 14.681 9.02371 16.2431 10.5858L19.0715 13.4142C20.6336 14.9763 20.6336 17.509 19.0715 19.0711C17.5094 20.6332 14.9768 20.6332 13.4147 19.0711L12.0005 17.6569" stroke="#212121" stroke-width="1.8" stroke-linecap="round" stroke-linejoin="round"/></symbol>
  <symbol id="list_check" viewBox="0 0 24 24"><path d="M3 11H13M3 7H13M3 15H9M12.9315 15.3314L15.4929 17.8929C15.8834 18.2834 16.5166 18.2834 16.9071 17.8929L21.641 13.159" stroke="#212121" stroke-width="1.8" stroke-linecap="round" stroke-linejoin="round"/></symbol>
  <symbol id="livephoto_f" viewBox="0 0 24 24"><path d="M11.9922 1.5H12.0078C12.344 1.50025 12.6163 1.77297 12.6161 2.10914C12.6158 2.44531 12.3431 2.71764 12.0069 2.71739H11.9931C11.6569 2.71764 11.3842 2.44531 11.3839 2.10914C11.3837 1.77297 11.656 1.50025 11.9922 1.5Z" fill="#212121"/>
<path d="M10.3988 2.21857C10.4731 2.54643 10.2675 2.87244 9.93965 2.94672L9.92619 2.94978C9.59844 3.02455 9.27213 2.81947 9.19736 2.49171C9.12259 2.16396 9.32767 1.83765 9.65542 1.76288L9.67065 1.75942C9.99852 1.68514 10.3245 1.89071 10.3988 2.21857Z" fill="#212121"/>
<path d="M13.6012 2.21857C13.6755 1.89071 14.0015 1.68514 14.3294 1.75942L14.3446 1.76288C14.6723 1.83765 14.8774 2.16396 14.8026 2.49171C14.7279 2.81947 14.4016 3.02455 14.0738 2.94978L14.0604 2.94672C13.7325 2.87244 13.5269 2.54643 13.6012 2.21857Z" fill="#212121"/>
<path d="M8.26251 2.81886C8.40836 3.12175 8.28105 3.48552 7.97816 3.63137L7.96573 3.63737C7.66306 3.78367 7.2991 3.6569 7.1528 3.35423C7.0065 3.05156 7.13326 2.6876 7.43593 2.5413L7.45001 2.53451C7.75289 2.38867 8.11666 2.51597 8.26251 2.81886Z" fill="#212121"/>
<path d="M15.7375 2.81886C15.8833 2.51597 16.2471 2.38867 16.55 2.53451L16.5641 2.5413C16.8667 2.6876 16.9935 3.05156 16.8472 3.35423C16.7009 3.6569 16.3369 3.78367 16.0343 3.63737L16.0218 3.63137C15.719 3.48552 15.5916 3.12175 15.7375 2.81886Z" fill="#212121"/>
<path d="M6.31438 3.88228C6.52396 4.14513 6.48076 4.52811 6.21791 4.73768L6.20713 4.74629C5.94458 4.95625 5.56154 4.91362 5.35158 4.65108C5.14162 4.38854 5.18425 4.0055 5.44679 3.79554L5.45898 3.7858C5.72183 3.57623 6.10481 3.61942 6.31438 3.88228Z" fill="#212121"/>
<path d="M17.6856 3.88228C17.8952 3.61942 18.2782 3.57623 18.541 3.7858L18.5532 3.79554C18.8158 4.0055 18.8584 4.38854 18.6484 4.65108C18.4385 4.91362 18.0554 4.95625 17.7929 4.74629L17.7821 4.73768C17.5192 4.52811 17.476 4.14513 17.6856 3.88228Z" fill="#212121"/>
<path d="M4.65108 5.35158C4.91362 5.56154 4.95625 5.94458 4.74629 6.20713L4.73768 6.21791C4.52811 6.48076 4.14513 6.52396 3.88228 6.31438C3.61942 6.10481 3.57623 5.72183 3.7858 5.45898L3.79554 5.44679C4.0055 5.18425 4.38854 5.14162 4.65108 5.35158Z" fill="#212121"/>
<path d="M19.3489 5.35158C19.6115 5.14162 19.9945 5.18425 20.2045 5.44679L20.2142 5.45898C20.4238 5.72183 20.3806 6.10481 20.1177 6.31438C19.8549 6.52396 19.4719 6.48076 19.2623 6.21791L19.2537 6.20713C19.0437 5.94458 19.0864 5.56154 19.3489 5.35158Z" fill="#212121"/>
<path d="M3.35423 7.1528C3.6569 7.2991 3.78367 7.66306 3.63737 7.96573L3.63137 7.97816C3.48552 8.28105 3.12175 8.40836 2.81886 8.26251C2.51597 8.11666 2.38867 7.75289 2.53451 7.45001L2.5413 7.43593C2.6876 7.13326 3.05156 7.0065 3.35423 7.1528Z" fill="#212121"/>
<path d="M20.6458 7.1528C20.9484 7.0065 21.3124 7.13326 21.4587 7.43593L21.4655 7.45001C21.6113 7.75289 21.484 8.11666 21.1811 8.26251C20.8783 8.40836 20.5145 8.28105 20.3686 7.97816L20.3626 7.96573C20.2163 7.66306 20.3431 7.2991 20.6458 7.1528Z" fill="#212121"/>
<path d="M2.49171 9.19736C2.81947 9.27213 3.02455 9.59844 2.94978 9.92619L2.94672 9.93964C2.87244 10.2675 2.54643 10.4731 2.21857 10.3988C1.89071 10.3245 1.68514 9.99851 1.75942 9.67065L1.76288 9.65542C1.83765 9.32767 2.16396 9.12259 2.49171 9.19736Z" fill="#212121"/>
<path d="M21.5083 9.19736C21.836 9.12259 22.1624 9.32767 22.2371 9.65542L22.2406 9.67065C22.3149 9.99852 22.1093 10.3245 21.7814 10.3988C21.4536 10.4731 21.1276 10.2675 21.0533 9.93965L21.0502 9.92619C20.9755 9.59844 21.1805 9.27213 21.5083 9.19736Z" fill="#212121"/>
<path d="M2.10914 11.3839C2.44531 11.3842 2.71764 11.6569 2.71739 11.9931V12.0069C2.71764 12.3431 2.44531 12.6158 2.10914 12.6161C1.77297 12.6163 1.50025 12.344 1.5 12.0078V11.9922C1.50025 11.656 1.77297 11.3837 2.10914 11.3839Z" fill="#212121"/>
<path d="M21.8909 11.3839C22.227 11.3837 22.4998 11.656 22.5 11.9922V12.0078C22.4998 12.344 22.227 12.6163 21.8909 12.6161C21.5547 12.6158 21.2824 12.3431 21.2826 12.0069V11.9931C21.2824 11.6569 21.5547 11.3842 21.8909 11.3839Z" fill="#212121"/>
<path d="M2.21857 13.6012C2.54643 13.5269 2.87244 13.7325 2.94672 14.0604L2.94978 14.0738C3.02455 14.4016 2.81947 14.7279 2.49171 14.8026C2.16396 14.8774 1.83765 14.6723 1.76288 14.3446L1.75942 14.3293C1.68514 14.0015 1.89071 13.6755 2.21857 13.6012Z" fill="#212121"/>
<path d="M21.7814 13.6012C22.1093 13.6755 22.3149 14.0015 22.2406 14.3294L22.2371 14.3446C22.1624 14.6723 21.836 14.8774 21.5083 14.8026C21.1805 14.7279 20.9755 14.4016 21.0502 14.0738L21.0533 14.0604C21.1276 13.7325 21.4536 13.5269 21.7814 13.6012Z" fill="#212121"/>
<path d="M2.81886 15.7375C3.12175 15.5916 3.48552 15.719 3.63137 16.0218L3.63737 16.0343C3.78367 16.3369 3.6569 16.7009 3.35423 16.8472C3.05156 16.9935 2.6876 16.8667 2.5413 16.5641L2.53451 16.55C2.38867 16.2471 2.51597 15.8833 2.81886 15.7375Z" fill="#212121"/>
<path d="M21.1811 15.7375C21.484 15.8833 21.6113 16.2471 21.4655 16.55L21.4587 16.5641C21.3124 16.8667 20.9484 16.9935 20.6458 16.8472C20.3431 16.7009 20.2163 16.3369 20.3626 16.0343L20.3686 16.0218C20.5145 15.719 20.8783 15.5916 21.1811 15.7375Z" fill="#212121"/>
<path d="M3.88228 17.6856C4.14513 17.476 4.52811 17.5192 4.73768 17.7821L4.74629 17.7929C4.95625 18.0554 4.91362 18.4385 4.65108 18.6484C4.38854 18.8584 4.0055 18.8158 3.79554 18.5532L3.7858 18.541C3.57623 18.2782 3.61942 17.8952 3.88228 17.6856Z" fill="#212121"/>
<path d="M20.1177 17.6856C20.3806 17.8952 20.4238 18.2782 20.2142 18.541L20.2045 18.5532C19.9945 18.8158 19.6115 18.8584 19.3489 18.6484C19.0864 18.4385 19.0437 18.0554 19.2537 17.7929L19.2623 17.7821C19.4719 17.5192 19.8549 17.476 20.1177 17.6856Z" fill="#212121"/>
<path d="M5.35158 19.3489C5.56154 19.0864 5.94458 19.0437 6.20713 19.2537L6.21791 19.2623C6.48076 19.4719 6.52396 19.8549 6.31438 20.1177C6.10481 20.3806 5.72183 20.4238 5.45898 20.2142L5.44679 20.2045C5.18425 19.9945 5.14162 19.6115 5.35158 19.3489Z" fill="#212121"/>
<path d="M18.6484 19.3489C18.8584 19.6115 18.8158 19.9945 18.5532 20.2045L18.541 20.2142C18.2782 20.4238 17.8952 20.3806 17.6856 20.1177C17.476 19.8549 17.5192 19.4719 17.7821 19.2623L17.7929 19.2537C18.0554 19.0437 18.4385 19.0864 18.6484 19.3489Z" fill="#212121"/>
<path d="M7.1528 20.6458C7.2991 20.3431 7.66306 20.2163 7.96573 20.3626L7.97816 20.3686C8.28105 20.5145 8.40836 20.8783 8.26251 21.1811C8.11666 21.484 7.75289 21.6113 7.45001 21.4655L7.43593 21.4587C7.13326 21.3124 7.0065 20.9484 7.1528 20.6458Z" fill="#212121"/>
<path d="M16.8472 20.6458C16.9935 20.9484 16.8667 21.3124 16.5641 21.4587L16.55 21.4655C16.2471 21.6113 15.8833 21.484 15.7375 21.1811C15.5916 20.8783 15.719 20.5145 16.0218 20.3686L16.0343 20.3626C16.3369 20.2163 16.7009 20.3431 16.8472 20.6458Z" fill="#212121"/>
<path d="M9.19736 21.5083C9.27213 21.1805 9.59844 20.9755 9.92619 21.0502L9.93964 21.0533C10.2675 21.1276 10.4731 21.4536 10.3988 21.7814C10.3245 22.1093 9.99851 22.3149 9.67065 22.2406L9.65542 22.2371C9.32767 22.1624 9.12259 21.836 9.19736 21.5083Z" fill="#212121"/>
<path d="M14.8026 21.5083C14.8774 21.836 14.6723 22.1624 14.3446 22.2371L14.3293 22.2406C14.0015 22.3149 13.6755 22.1093 13.6012 21.7814C13.5269 21.4536 13.7325 21.1276 14.0604 21.0533L14.0738 21.0502C14.4016 20.9755 14.7279 21.1805 14.8026 21.5083Z" fill="#212121"/>
<path d="M11.3839 21.8909C11.3842 21.5547 11.6569 21.2824 11.9931 21.2826H12.0069C12.3431 21.2824 12.6158 21.5547 12.6161 21.8909C12.6163 22.227 12.344 22.4998 12.0078 22.5H11.9922C11.656 22.4998 11.3837 22.227 11.3839 21.8909Z" fill="#212121"/>
<path d="M12.0001 8.11956C9.85698 8.11956 8.11965 9.85689 8.11965 12C8.11965 14.1431 9.85698 15.8804 12.0001 15.8804C14.1432 15.8804 15.8805 14.1431 15.8805 12C15.8805 9.85689 14.1432 8.11956 12.0001 8.11956ZM9.79357 12C9.79357 10.7814 10.7815 9.79347 12.0001 9.79347C13.2187 9.79347 14.2066 10.7814 14.2066 12C14.2066 13.2186 13.2187 14.2065 12.0001 14.2065C10.7815 14.2065 9.79357 13.2186 9.79357 12Z" fill="#212121"/>
<path d="M12 19.6087C7.79787 19.6087 4.39134 16.2021 4.39134 12C4.39134 7.79781 7.79787 4.39128 12 4.39128C16.2022 4.39128 19.6087 7.79781 19.6087 12C19.6087 16.2021 16.2022 19.6087 12 19.6087ZM12 18.5435C15.6139 18.5435 18.5435 15.6138 18.5435 12C18.5435 8.38611 15.6139 5.4565 12 5.4565C8.38618 5.4565 5.45656 8.38611 5.45656 12C5.45656 15.6138 8.38618 18.5435 12 18.5435Z" fill="#212121"/></symbol>
  <symbol id="livephoto_off_f" viewBox="0 0 24 24"><path d="M11.9922 1.5H12.0078C12.344 1.50025 12.6163 1.77297 12.6161 2.10914C12.6158 2.44531 12.3431 2.71764 12.0069 2.71739H11.9931C11.6569 2.71764 11.3842 2.44531 11.3839 2.10914C11.3837 1.77297 11.656 1.50025 11.9922 1.5Z" fill="#212121"/>
<path d="M10.3988 2.21857C10.4731 2.54643 10.2675 2.87244 9.93965 2.94672L9.92619 2.94978C9.59844 3.02455 9.27213 2.81947 9.19736 2.49171C9.12259 2.16396 9.32767 1.83765 9.65542 1.76288L9.67065 1.75942C9.99852 1.68514 10.3245 1.89071 10.3988 2.21857Z" fill="#212121"/>
<path d="M14.3294 1.75942C14.0015 1.68514 13.6755 1.89071 13.6012 2.21857C13.5269 2.54643 13.7325 2.87244 14.0604 2.94672L14.0738 2.94978C14.4016 3.02455 14.7279 2.81947 14.8026 2.49171C14.8774 2.16396 14.6723 1.83765 14.3446 1.76288L14.3294 1.75942Z" fill="#212121"/>
<path d="M8.26251 2.81886C8.40836 3.12175 8.28105 3.48552 7.97816 3.63137L7.96573 3.63737C7.66306 3.78367 7.2991 3.6569 7.1528 3.35423C7.0065 3.05156 7.13326 2.6876 7.43593 2.5413L7.45001 2.53451C7.75289 2.38867 8.11666 2.51597 8.26251 2.81886Z" fill="#212121"/>
<path d="M16.55 2.53451C16.2471 2.38867 15.8833 2.51597 15.7375 2.81886C15.5916 3.12175 15.719 3.48552 16.0218 3.63137L16.0343 3.63737C16.3369 3.78367 16.7009 3.6569 16.8472 3.35423C16.9935 3.05156 16.8667 2.6876 16.5641 2.5413L16.55 2.53451Z" fill="#212121"/>
<path d="M17.6856 3.88228C17.8952 3.61942 18.2782 3.57623 18.541 3.7858L18.5532 3.79554C18.8158 4.0055 18.8584 4.38854 18.6484 4.65108C18.4385 4.91362 18.0554 4.95625 17.7929 4.74629L17.7821 4.73768C17.5192 4.52811 17.476 4.14513 17.6856 3.88228Z" fill="#212121"/>
<path d="M20.2045 5.44679C19.9945 5.18425 19.6115 5.14162 19.3489 5.35158C19.0864 5.56154 19.0437 5.94458 19.2537 6.20713L19.2623 6.21791C19.4719 6.48076 19.8549 6.52396 20.1177 6.31438C20.3806 6.10481 20.4238 5.72183 20.2142 5.45898L20.2045 5.44679Z" fill="#212121"/>
<path d="M3.35423 7.1528C3.6569 7.2991 3.78367 7.66306 3.63737 7.96573L3.63137 7.97816C3.48552 8.28105 3.12175 8.40836 2.81886 8.26251C2.51597 8.11666 2.38867 7.75289 2.53451 7.45001L2.5413 7.43593C2.6876 7.13326 3.05156 7.0065 3.35423 7.1528Z" fill="#212121"/>
<path d="M21.4587 7.43593C21.3124 7.13326 20.9484 7.0065 20.6458 7.1528C20.3431 7.2991 20.2163 7.66306 20.3626 7.96573L20.3686 7.97816C20.5145 8.28105 20.8783 8.40836 21.1811 8.26251C21.484 8.11666 21.6113 7.75289 21.4655 7.45001L21.4587 7.43593Z" fill="#212121"/>
<path d="M2.49171 9.19736C2.81947 9.27213 3.02455 9.59844 2.94978 9.92619L2.94672 9.93964C2.87244 10.2675 2.54643 10.4731 2.21857 10.3988C1.89071 10.3245 1.68514 9.99851 1.75942 9.67065L1.76288 9.65542C1.83765 9.32767 2.16396 9.12259 2.49171 9.19736Z" fill="#212121"/>
<path d="M22.2371 9.65542C22.1624 9.32767 21.836 9.12259 21.5083 9.19736C21.1805 9.27213 20.9755 9.59844 21.0502 9.92619L21.0533 9.93965C21.1276 10.2675 21.4536 10.4731 21.7814 10.3988C22.1093 10.3245 22.3149 9.99852 22.2406 9.67065L22.2371 9.65542Z" fill="#212121"/>
<path d="M2.10914 11.3839C2.44531 11.3842 2.71764 11.6569 2.71739 11.9931V12.0069C2.71764 12.3431 2.44531 12.6158 2.10914 12.6161C1.77297 12.6163 1.50025 12.344 1.5 12.0078V11.9922C1.50025 11.656 1.77297 11.3837 2.10914 11.3839Z" fill="#212121"/>
<path d="M22.5 11.9922C22.4998 11.656 22.227 11.3837 21.8909 11.3839C21.5547 11.3842 21.2824 11.6569 21.2826 11.9931V12.0069C21.2824 12.3431 21.5547 12.6158 21.8909 12.6161C22.227 12.6163 22.4998 12.344 22.5 12.0078V11.9922Z" fill="#212121"/>
<path d="M2.21857 13.6012C2.54643 13.5269 2.87244 13.7325 2.94672 14.0604L2.94978 14.0738C3.02455 14.4016 2.81947 14.7279 2.49171 14.8026C2.16396 14.8774 1.83765 14.6723 1.76288 14.3446L1.75942 14.3294C1.68514 14.0015 1.89071 13.6755 2.21857 13.6012Z" fill="#212121"/>
<path d="M22.2406 14.3294C22.3149 14.0015 22.1093 13.6755 21.7814 13.6012C21.4536 13.5269 21.1276 13.7325 21.0533 14.0604L21.0502 14.0738C20.9755 14.4016 21.1805 14.7279 21.5083 14.8026C21.836 14.8774 22.1624 14.6723 22.2371 14.3446L22.2406 14.3294Z" fill="#212121"/>
<path d="M2.81886 15.7375C3.12175 15.5916 3.48552 15.719 3.63137 16.0218L3.63737 16.0343C3.78367 16.3369 3.6569 16.7009 3.35423 16.8472C3.05156 16.9935 2.6876 16.8667 2.5413 16.5641L2.53451 16.55C2.38867 16.2471 2.51597 15.8833 2.81886 15.7375Z" fill="#212121"/>
<path d="M21.4655 16.55C21.6113 16.2471 21.484 15.8833 21.1811 15.7375C20.8783 15.5916 20.5145 15.719 20.3686 16.0218L20.3626 16.0343C20.2163 16.3369 20.3431 16.7009 20.6458 16.8472C20.9484 16.9935 21.3124 16.8667 21.4587 16.5641L21.4655 16.55Z" fill="#212121"/>
<path d="M3.88228 17.6856C4.14513 17.476 4.52811 17.5192 4.73768 17.7821L4.74629 17.7929C4.95625 18.0554 4.91362 18.4385 4.65108 18.6484C4.38854 18.8584 4.0055 18.8158 3.79554 18.5532L3.7858 18.541C3.57623 18.2782 3.61942 17.8952 3.88228 17.6856Z" fill="#212121"/>
<path d="M6.20713 19.2537C5.94458 19.0437 5.56154 19.0864 5.35158 19.3489C5.14162 19.6115 5.18425 19.9945 5.44679 20.2045L5.45898 20.2142C5.72183 20.4238 6.10481 20.3806 6.31438 20.1177C6.52396 19.8549 6.48076 19.4719 6.21791 19.2623L6.20713 19.2537Z" fill="#212121"/>
<path d="M7.1528 20.6458C7.2991 20.3431 7.66306 20.2163 7.96573 20.3626L7.97816 20.3686C8.28105 20.5145 8.40836 20.8783 8.26251 21.1811C8.11666 21.484 7.75289 21.6113 7.45001 21.4655L7.43593 21.4587C7.13326 21.3124 7.0065 20.9484 7.1528 20.6458Z" fill="#212121"/>
<path d="M16.5641 21.4587C16.8667 21.3124 16.9935 20.9484 16.8472 20.6458C16.7009 20.3431 16.3369 20.2163 16.0343 20.3626L16.0218 20.3686C15.719 20.5145 15.5916 20.8783 15.7375 21.1811C15.8833 21.484 16.2471 21.6113 16.55 21.4655L16.5641 21.4587Z" fill="#212121"/>
<path d="M9.19736 21.5083C9.27213 21.1805 9.59844 20.9755 9.92619 21.0502L9.93964 21.0533C10.2675 21.1276 10.4731 21.4536 10.3988 21.7814C10.3245 22.1093 9.99851 22.3149 9.67065 22.2406L9.65542 22.2371C9.32767 22.1624 9.12259 21.836 9.19736 21.5083Z" fill="#212121"/>
<path d="M14.3446 22.2371C14.6723 22.1624 14.8774 21.836 14.8026 21.5083C14.7279 21.1805 14.4016 20.9755 14.0738 21.0502L14.0604 21.0533C13.7325 21.1276 13.5269 21.4536 13.6012 21.7814C13.6755 22.1093 14.0015 22.3149 14.3294 22.2406L14.3446 22.2371Z" fill="#212121"/>
<path d="M11.3839 21.8909C11.3842 21.5547 11.6569 21.2824 11.9931 21.2826H12.0069C12.3431 21.2824 12.6158 21.5547 12.6161 21.8909C12.6163 22.227 12.344 22.4998 12.0078 22.5H11.9922C11.656 22.4998 11.3837 22.227 11.3839 21.8909Z" fill="#212121"/>
<path d="M8.11965 12C8.11965 11.4815 8.22133 10.9868 8.40584 10.5347L9.79486 11.9237C9.794 11.949 9.79357 11.9745 9.79357 12C9.79357 13.2186 10.7815 14.2065 12.0001 14.2065C12.0256 14.2065 12.051 14.2061 12.0764 14.2052L13.4654 15.5942C13.0133 15.7788 12.5186 15.8804 12.0001 15.8804C9.85699 15.8804 8.11965 14.1431 8.11965 12Z" fill="#212121"/>
<path d="M7.60145 5.79079C8.84338 4.90941 10.3612 4.39128 12 4.39128C16.2022 4.39128 19.6087 7.79781 19.6087 12C19.6087 13.6388 19.0906 15.1566 18.2092 16.3986L20.9402 19.1296C21.2331 19.4225 21.2331 19.8973 20.9402 20.1902C20.6473 20.4831 20.1725 20.4831 19.8796 20.1902L3.96967 4.28033C3.67678 3.98744 3.67678 3.51256 3.96967 3.21967C4.26256 2.92678 4.73744 2.92678 5.03033 3.21967L7.60145 5.79079ZM10.3145 8.50381C10.8242 8.25758 11.396 8.11956 12.0001 8.11956C14.1432 8.11956 15.8805 9.85689 15.8805 12C15.8805 12.604 15.7425 13.1759 15.4963 13.6856L17.4433 15.6327C18.1383 14.5934 18.5435 13.344 18.5435 12C18.5435 8.38611 15.6139 5.4565 12 5.4565C10.656 5.4565 9.40658 5.86173 8.36733 6.55667L10.3145 8.50381ZM14.1764 12.3658C14.1963 12.2468 14.2066 12.1246 14.2066 12C14.2066 10.7814 13.2187 9.79347 12.0001 9.79347C11.8755 9.79347 11.7533 9.8038 11.6343 9.82365L14.1764 12.3658Z" fill="#212121"/>
<path d="M5.66118 7.79004L6.43209 8.56095C5.81358 9.56022 5.45656 10.7384 5.45656 12C5.45656 15.6138 8.38618 18.5435 12 18.5435C13.2616 18.5435 14.4398 18.1864 15.4391 17.5679L16.21 18.3388C15.0044 19.1411 13.5568 19.6087 12 19.6087C7.79787 19.6087 4.39134 16.2021 4.39134 12C4.39134 10.4432 4.85887 8.99566 5.66118 7.79004Z" fill="#212121"/></symbol>
  <symbol id="livephoto_replay_f" viewBox="0 0 24 24"><path d="M12.0078 1.5H11.9922C11.656 1.50025 11.3837 1.77297 11.3839 2.10914C11.3842 2.44531 11.6569 2.71764 11.9931 2.71739H12.0069C12.3431 2.71764 12.6158 2.44531 12.6161 2.10914C12.6163 1.77297 12.344 1.50025 12.0078 1.5ZM9.93965 2.94672C10.2675 2.87244 10.4731 2.54643 10.3988 2.21857C10.3245 1.89071 9.99852 1.68514 9.67065 1.75942L9.65542 1.76288C9.32767 1.83765 9.12259 2.16396 9.19736 2.49171C9.27213 2.81947 9.59844 3.02455 9.92619 2.94978L9.93965 2.94672ZM13.6012 2.21857C13.6755 1.89071 14.0015 1.68514 14.3294 1.75942L14.3446 1.76288C14.6723 1.83765 14.8774 2.16396 14.8026 2.49171C14.7279 2.81947 14.4016 3.02455 14.0738 2.94978L14.0604 2.94672C13.7325 2.87244 13.5269 2.54643 13.6012 2.21857ZM7.97816 3.63137C8.28105 3.48552 8.40836 3.12175 8.26251 2.81886C8.11666 2.51597 7.75289 2.38867 7.45001 2.53451L7.43593 2.5413C7.13326 2.6876 7.0065 3.05156 7.1528 3.35423C7.2991 3.6569 7.66306 3.78367 7.96573 3.63737L7.97816 3.63137ZM15.7375 2.81886C15.8833 2.51597 16.2471 2.38867 16.55 2.53451L16.5641 2.5413C16.8667 2.6876 16.9935 3.05156 16.8472 3.35423C16.7009 3.6569 16.3369 3.78367 16.0343 3.63737L16.0218 3.63137C15.719 3.48552 15.5916 3.12175 15.7375 2.81886ZM6.21791 4.73768C6.48076 4.52811 6.52396 4.14513 6.31438 3.88228C6.10481 3.61942 5.72183 3.57623 5.45898 3.7858L5.44679 3.79554C5.18425 4.0055 5.14162 4.38854 5.35158 4.65108C5.56154 4.91362 5.94458 4.95625 6.20713 4.74629L6.21791 4.73768ZM17.6856 3.88228C17.8952 3.61942 18.2782 3.57623 18.541 3.7858L18.5532 3.79554C18.8158 4.0055 18.8584 4.38854 18.6484 4.65108C18.4385 4.91362 18.0554 4.95625 17.7929 4.74629L17.7821 4.73768C17.5192 4.52811 17.476 4.14513 17.6856 3.88228ZM4.74629 6.20713C4.95625 5.94459 4.91362 5.56154 4.65108 5.35158C4.38854 5.14162 4.0055 5.18425 3.79554 5.44679L3.7858 5.45898C3.57623 5.72183 3.61942 6.10481 3.88228 6.31438C4.14513 6.52396 4.52811 6.48076 4.73768 6.21791L4.74629 6.20713ZM19.3489 5.35158C19.6115 5.14162 19.9945 5.18425 20.2045 5.44679L20.2142 5.45898C20.4238 5.72183 20.3806 6.10481 20.1177 6.31438C19.8549 6.52396 19.4719 6.48076 19.2623 6.21791L19.2537 6.20713C19.0437 5.94458 19.0864 5.56154 19.3489 5.35158ZM3.63737 7.96573C3.78367 7.66306 3.6569 7.2991 3.35423 7.1528C3.05156 7.0065 2.6876 7.13326 2.5413 7.43593L2.53451 7.45001C2.38867 7.75289 2.51597 8.11666 2.81886 8.26251C3.12175 8.40836 3.48552 8.28105 3.63137 7.97816L3.63737 7.96573ZM20.6458 7.1528C20.9484 7.0065 21.3124 7.13326 21.4587 7.43593L21.4655 7.45001C21.6113 7.75289 21.484 8.11666 21.1811 8.26251C20.8783 8.40836 20.5145 8.28105 20.3686 7.97816L20.3626 7.96573C20.2163 7.66306 20.3431 7.2991 20.6458 7.1528ZM2.94978 9.92619C3.02455 9.59844 2.81947 9.27213 2.49171 9.19736C2.16396 9.12259 1.83765 9.32767 1.76288 9.65542L1.75942 9.67065C1.68514 9.99851 1.89071 10.3245 2.21857 10.3988C2.54643 10.4731 2.87244 10.2675 2.94672 9.93964L2.94978 9.92619ZM21.5083 9.19736C21.836 9.12259 22.1624 9.32767 22.2371 9.65542L22.2406 9.67065C22.3149 9.99852 22.1093 10.3245 21.7814 10.3988C21.4536 10.4731 21.1276 10.2675 21.0533 9.93965L21.0502 9.92619C20.9755 9.59844 21.1805 9.27213 21.5083 9.19736ZM2.71739 11.9931C2.71764 11.6569 2.44531 11.3842 2.10914 11.3839C1.77297 11.3837 1.50025 11.656 1.5 11.9922V12.0078C1.50025 12.344 1.77297 12.6163 2.10914 12.6161C2.44531 12.6158 2.71764 12.3431 2.71739 12.0069V11.9931ZM21.8909 11.3839C22.227 11.3837 22.4998 11.656 22.5 11.9922V12.0078C22.4998 12.344 22.227 12.6163 21.8909 12.6161C21.5547 12.6158 21.2824 12.3431 21.2826 12.0069V11.9931C21.2824 11.6569 21.5547 11.3842 21.8909 11.3839ZM2.94672 14.0604C2.87244 13.7325 2.54643 13.5269 2.21857 13.6012C1.89071 13.6755 1.68514 14.0015 1.75942 14.3294L1.76288 14.3446C1.83765 14.6723 2.16396 14.8774 2.49171 14.8026C2.81947 14.7279 3.02455 14.4016 2.94978 14.0738L2.94672 14.0604ZM21.7814 13.6012C22.1093 13.6755 22.3149 14.0015 22.2406 14.3294L22.2371 14.3446C22.1624 14.6723 21.836 14.8774 21.5083 14.8026C21.1805 14.7279 20.9755 14.4016 21.0502 14.0738L21.0533 14.0604C21.1276 13.7325 21.4536 13.5269 21.7814 13.6012ZM3.63137 16.0218C3.48552 15.719 3.12175 15.5916 2.81886 15.7375C2.51597 15.8833 2.38867 16.2471 2.53451 16.55L2.5413 16.5641C2.6876 16.8667 3.05156 16.9935 3.35423 16.8472C3.6569 16.7009 3.78367 16.3369 3.63737 16.0343L3.63137 16.0218ZM21.1811 15.7375C21.484 15.8833 21.6113 16.2471 21.4655 16.55L21.4587 16.5641C21.3124 16.8667 20.9484 16.9935 20.6458 16.8472C20.3431 16.7009 20.2163 16.3369 20.3626 16.0343L20.3686 16.0218C20.5145 15.719 20.8783 15.5916 21.1811 15.7375ZM4.73768 17.7821C4.52811 17.5192 4.14513 17.476 3.88228 17.6856C3.61942 17.8952 3.57623 18.2782 3.7858 18.541L3.79554 18.5532C4.0055 18.8158 4.38854 18.8584 4.65108 18.6484C4.91362 18.4385 4.95625 18.0554 4.74629 17.7929L4.73768 17.7821ZM20.1177 17.6856C20.3806 17.8952 20.4238 18.2782 20.2142 18.541L20.2045 18.5532C19.9945 18.8158 19.6115 18.8584 19.3489 18.6484C19.0864 18.4385 19.0437 18.0554 19.2537 17.7929L19.2623 17.7821C19.4719 17.5192 19.8549 17.476 20.1177 17.6856ZM6.20713 19.2537C5.94459 19.0437 5.56154 19.0864 5.35158 19.3489C5.14162 19.6115 5.18425 19.9945 5.44679 20.2045L5.45898 20.2142C5.72183 20.4238 6.10481 20.3806 6.31438 20.1177C6.52396 19.8549 6.48076 19.4719 6.21791 19.2623L6.20713 19.2537ZM18.6484 19.3489C18.8584 19.6115 18.8158 19.9945 18.5532 20.2045L18.541 20.2142C18.2782 20.4238 17.8952 20.3806 17.6856 20.1177C17.476 19.8549 17.5192 19.4719 17.7821 19.2623L17.7929 19.2537C18.0554 19.0437 18.4385 19.0864 18.6484 19.3489ZM7.96573 20.3626C7.66306 20.2163 7.2991 20.3431 7.1528 20.6458C7.0065 20.9484 7.13326 21.3124 7.43593 21.4587L7.45001 21.4655C7.75289 21.6113 8.11666 21.484 8.26251 21.1811C8.40836 20.8783 8.28105 20.5145 7.97816 20.3686L7.96573 20.3626ZM16.8472 20.6458C16.9935 20.9484 16.8667 21.3124 16.5641 21.4587L16.55 21.4655C16.2471 21.6113 15.8833 21.484 15.7375 21.1811C15.5916 20.8783 15.719 20.5145 16.0218 20.3686L16.0343 20.3626C16.3369 20.2163 16.7009 20.3431 16.8472 20.6458ZM9.92619 21.0502C9.59844 20.9755 9.27213 21.1805 9.19736 21.5083C9.12259 21.836 9.32767 22.1624 9.65542 22.2371L9.67065 22.2406C9.99851 22.3149 10.3245 22.1093 10.3988 21.7814C10.4731 21.4536 10.2675 21.1276 9.93964 21.0533L9.92619 21.0502ZM14.8026 21.5083C14.8774 21.836 14.6723 22.1624 14.3446 22.2371L14.3294 22.2406C14.0015 22.3149 13.6755 22.1093 13.6012 21.7814C13.5269 21.4536 13.7325 21.1276 14.0604 21.0533L14.0738 21.0502C14.4016 20.9755 14.7279 21.1805 14.8026 21.5083ZM11.9931 21.2826C11.6569 21.2824 11.3842 21.5547 11.3839 21.8909C11.3837 22.227 11.656 22.4998 11.9922 22.5H12.0078C12.344 22.4998 12.6163 22.227 12.6161 21.8909C12.6158 21.5547 12.3431 21.2824 12.0069 21.2826H11.9931ZM8.99751 9.07004C9.8084 8.16914 10.9866 7.60296 12.2977 7.60296C14.7429 7.60296 16.7235 9.57253 16.7235 12.0001C16.7235 14.4278 14.7429 16.3973 12.2977 16.3973C11.0316 16.3973 9.89083 15.8701 9.08335 15.0228C8.80614 14.7319 8.34459 14.7195 8.05197 14.9949C7.75882 15.2708 7.74617 15.731 8.02389 16.0225C9.0958 17.1472 10.6148 17.8501 12.2977 17.8501C15.5475 17.8501 18.1836 15.2319 18.1836 12.0001C18.1836 8.7684 15.5475 6.15015 12.2977 6.15015C10.4437 6.15015 8.79043 7.00233 7.7121 8.33255L7.0428 7.94855C6.43206 7.59814 5.6945 8.15543 5.87857 8.83811L6.48854 11.1003C6.60238 11.5225 7.03834 11.7717 7.46129 11.6591L9.73775 11.0529C10.4211 10.871 10.5433 9.95693 9.92924 9.60462L8.99751 9.07004Z" fill="#212121"/></symbol>
  <symbol id="location" viewBox="0 0 24 24"><path fill-rule="evenodd" clip-rule="evenodd" d="M7.37584 4.85915C8.65549 3.61971 10.1969 3 12 3C13.8031 3 15.3372 3.61267 16.6023 4.83803C17.8675 6.06339 18.5 7.54929 18.5 9.29577C18.5 10.169 18.2746 11.169 17.8238 12.2958C17.373 13.4225 16.8277 14.4789 16.1879 15.4648C15.5481 16.4507 14.9156 17.3732 14.2903 18.2324C13.665 19.0916 13.1342 19.7746 12.698 20.2817L12 21C11.8255 20.8028 11.5928 20.5423 11.302 20.2183C11.0112 19.8944 10.4877 19.2465 9.73154 18.2746C8.97539 17.3028 8.31376 16.3592 7.74664 15.4437C7.17953 14.5282 6.66331 13.493 6.19799 12.338C5.73266 11.1831 5.5 10.169 5.5 9.29577C5.5 7.54929 6.12527 6.07043 7.37584 4.85915Z" stroke="#212121" stroke-width="1.8" stroke-linecap="round" stroke-linejoin="round"/>
<path d="M13 9.5C13 10.0523 12.5523 10.5 12 10.5C11.4477 10.5 11 10.0523 11 9.5C11 8.94772 11.4477 8.5 12 8.5C12.5523 8.5 13 8.94772 13 9.5Z" stroke="#212121" stroke-width="1.8" stroke-linecap="round" stroke-linejoin="round"/></symbol>
  <symbol id="logo" viewBox="0 0 24 24"><path d="M14.7326 7.55951C15.1055 6.58729 15.6953 5.30753 17.4894 5.50536C19.2381 5.78732 19.5361 6.91795 19.5361 9.37607V16.4207H21.1875V18.4884H17.4589V18.4878H17.453V8.39152C17.453 7.76197 16.9365 7.5592 16.6721 8.33883L13.2008 18.4878H9.78063L9.80344 8.41093C9.80344 7.7672 9.29438 7.5324 9.01365 8.33883L5.53644 18.4869V18.4884H3.46875V5.78763H5.53644V12.1122L7.12436 7.55951C7.51602 6.55123 8.07656 5.32263 9.82255 5.50536C11.6012 5.78732 11.8795 6.93212 11.8795 9.37607L11.8619 15.9394L14.7326 7.55951Z" fill="#212121"/></symbol>
  <symbol id="mar" viewBox="0 0 24 24"><path d="M18.8571 18.6689C18.226 18.6689 17.7143 18.1317 17.7143 17.4689L17.7143 10.7658L12.8081 15.9173C12.3618 16.3859 11.6382 16.3859 11.1919 15.9173L6.28571 10.7658L6.28571 17.4689C6.28571 18.1317 5.77404 18.6689 5.14286 18.6689C4.51167 18.6689 4 18.1317 4 17.4689L4 7.86912C4 6.80004 5.23102 6.26464 5.95098 7.0206L12 13.3721L18.049 7.0206C18.769 6.26464 20 6.80004 20 7.86913L20 17.4689C20 18.1317 19.4883 18.6689 18.8571 18.6689Z" fill="#212121"/></symbol>
  <symbol id="message_send" viewBox="0 0 24 24"><path d="M4.00161 9.49945L18.0636 4.66564C18.851 4.39495 19.605 5.14895 19.3344 5.9364L14.5006 19.9984C14.226 20.7972 13.1459 20.9168 12.7032 20.1974L9.43728 14.8903C9.35524 14.757 9.24304 14.6448 9.10972 14.5627L3.8026 11.2968C3.08319 10.8541 3.20278 9.77404 4.00161 9.49945Z" stroke="#212121" stroke-width="1.8" stroke-linecap="round" stroke-linejoin="round"/>
<path d="M13.5 10.5L9.5 14.5" stroke="#212121" stroke-width="1.8" stroke-linecap="round" stroke-linejoin="round"/></symbol>
  <symbol id="mic" viewBox="0 0 24 24"><path d="M18.5 11C18.5 11 19 18.5 12 18.5M12 18.5C5 18.5 5.5 11 5.5 11M12 18.5V21.5M12 21.5H15.5M12 21.5H8.5M12 15C10.3431 15 9 13.6569 9 12V6C9 4.34315 10.3431 3 12 3C13.6569 3 15 4.34315 15 6V12C15 13.6569 13.6569 15 12 15Z" stroke="#212121" stroke-width="1.8" stroke-linecap="round" stroke-linejoin="round"/></symbol>
  <symbol id="mike_fill" viewBox="0 0 24 24"><path d="M12 1.5C9.79086 1.5 8 3.29086 8 5.5V11.5C8 13.7091 9.79086 15.5 12 15.5C14.2091 15.5 16 13.7091 16 11.5V5.5C16 3.29086 14.2091 1.5 12 1.5Z" fill="#212121"/>
<path d="M19.5 11.5C19.5 15.3031 16.6694 18.445 13 18.9339V20.5H16C16.5523 20.5 17 20.9477 17 21.5C17 22.0523 16.5523 22.5 16 22.5H8C7.44772 22.5 7 22.0523 7 21.5C7 20.9477 7.44772 20.5 8 20.5H11V18.9339C7.33064 18.445 4.5 15.3031 4.5 11.5V10.5C4.5 9.94771 4.94772 9.5 5.5 9.5C6.05228 9.5 6.5 9.94771 6.5 10.5V11.5C6.5 14.5376 8.96243 17 12 17C15.0376 17 17.5 14.5376 17.5 11.5V10.5C17.5 9.94771 17.9477 9.5 18.5 9.5C19.0523 9.5 19.5 9.94771 19.5 10.5V11.5Z" fill="#212121"/></symbol>
  <symbol id="more-horizontal" viewBox="0 0 24 24"><path d="M6 13C6.55 13 7 12.55 7 12C7 11.45 6.55 11 6 11C5.45 11 5 11.45 5 12C5 12.55 5.45 13 6 13Z" stroke="#212121" stroke-width="2"/>
<path d="M12 13C12.55 13 13 12.55 13 12C13 11.45 12.55 11 12 11C11.45 11 11 11.45 11 12C11 12.55 11.45 13 12 13Z" stroke="#212121" stroke-width="2"/>
<path d="M18 13C18.55 13 19 12.55 19 12C19 11.45 18.55 11 18 11C17.45 11 17 11.45 17 12C17 12.55 17.45 13 18 13Z" stroke="#212121" stroke-width="2"/></symbol>
  <symbol id="more_fill" viewBox="0 0 24 24"><path d="M19.5 8.43066C20.4253 9.33808 21 10.6017 21 12V16C21 18.7614 18.7614 21 16 21H12C10.6017 21 9.33808 20.4253 8.43066 19.5H15.5C17.7091 19.5 19.5 17.7091 19.5 15.5V8.43066ZM15 4C16.6569 4 18 5.34315 18 7V15C18 16.6569 16.6569 18 15 18H7C5.34315 18 4 16.6569 4 15V7C4 5.34315 5.34315 4 7 4H15Z" fill="#212121"/></symbol>
  <symbol id="music" viewBox="0 0 24 24"><path d="M8 17.5C8 18.8807 6.88071 20 5.5 20C4.11929 20 3 18.8807 3 17.5C3 16.1193 4.11929 15 5.5 15C6.88071 15 8 16.1193 8 17.5ZM8 17.5V6.91321C8 6.39601 8.39439 5.96415 8.90946 5.91732L17.9095 5.09914C18.4951 5.0459 19 5.507 19 6.09503V16.5M19 16.5C19 17.8807 17.8807 19 16.5 19C15.1193 19 14 17.8807 14 16.5C14 15.1193 15.1193 14 16.5 14C17.8807 14 19 15.1193 19 16.5Z" stroke="#212121" stroke-width="1.8" stroke-linecap="round" stroke-linejoin="round"/></symbol>
  <symbol id="none" viewBox="0 0 24 24"><path d="M9.08984 18.0124L9.08984 17.7454C9.08984 17.0827 9.62762 16.5449 10.2904 16.5449C10.9531 16.5449 11.4909 17.0827 11.4909 17.7454L11.4909 18.0124C11.4907 18.675 10.953 19.2116 10.2904 19.2116C9.62771 19.2116 9.08998 18.675 9.08984 18.0124Z" fill="#212121"/>
<path d="M9.09115 14.3857V12.3675C9.09115 11.4944 9.79878 10.7855 10.6719 10.7855H12.6276C13.62 10.7852 14.4245 9.98104 14.4245 8.98861C14.4244 7.9948 13.6175 7.18991 12.6237 7.19174L8.375 7.19955C7.71228 7.20077 7.17313 6.66434 7.17188 6.00163C7.17066 5.33903 7.70724 4.80124 8.36979 4.79981L12.6198 4.792C14.9406 4.78795 16.8241 6.66773 16.8242 8.98861C16.8242 11.3065 14.9455 13.1863 12.6276 13.1865H11.4909V14.3857C11.4909 15.0483 10.9541 15.5859 10.2917 15.5863C9.62893 15.5863 9.09115 15.0485 9.09115 14.3857Z" fill="#212121"/></symbol>
  <symbol id="note" viewBox="0 0 24 24"><path d="M19 9L13 3H7C5.89543 3 5 3.89543 5 5V19C5 20.1046 5.89543 21 7 21H17C18.1046 21 19 20.1046 19 19V9ZM13 3V8C13 8.55228 13.4477 9 14 9H19M9 13H15M9 17H15" stroke="#212121" stroke-width="1.8" stroke-linecap="round" stroke-linejoin="round"/></symbol>
  <symbol id="notifications" viewBox="0 0 24 24"><path d="M12 5.5C14.7614 5.5 17 7.73858 17 10.5V12.7396C17 13.2294 17.1798 13.7022 17.5052 14.0683L18.7808 15.5035C19.6407 16.4708 18.954 18 17.6597 18H6.34025C5.04598 18 4.35927 16.4708 5.21913 15.5035L6.4948 14.0683C6.82022 13.7022 6.99998 13.2294 6.99998 12.7396L7 10.5C7 7.73858 9.23858 5.5 12 5.5ZM12 5.5V3M10.9999 21H12.9999" stroke="#212121" stroke-width="1.8" stroke-linecap="round" stroke-linejoin="round"/></symbol>
  <symbol id="num" viewBox="0 0 24 24"><rect x="13" y="4.00037" width="2.4" height="16" rx="1.2" fill="#212121"/>
<rect x="4.19922" y="13.3338" width="2.4" height="6.66667" rx="1.2" fill="#212121"/>
<rect x="8.59961" y="8" width="2.4" height="12" rx="1.2" fill="#212121"/>
<rect x="17.3984" y="9.33356" width="2.4" height="10.6667" rx="1.2" fill="#212121"/></symbol>
  <symbol id="pages" viewBox="0 0 24 24"><path d="M18.2731 7.68021C18.7979 7.15671 18.7979 6.28421 18.2731 5.72581C17.7484 5.20232 16.8738 5.20232 16.3141 5.72581L11.5707 10.4579C11.4662 10.5621 11.4662 10.7313 11.5707 10.8355L13.1522 12.4132C13.2562 12.517 13.4247 12.517 13.5288 12.4132L18.2731 7.68021ZM9.03757 16.9636L12.8857 13.1246C12.9722 13.0383 12.9711 12.8608 12.8846 12.7745L11.2065 11.1004C11.1485 11.0425 11.0546 11.0425 10.9966 11.1004L10.9267 11.1702L7.07851 15.0092C6.73733 15.3496 5.99684 16.553 5.34384 17.7131C5.31452 17.7652 5.32362 17.8303 5.36592 17.8725L6.19836 18.703C6.24252 18.7471 6.31129 18.7546 6.36399 18.7212C7.49311 18.0059 8.69682 17.2695 9.03757 16.9636ZM5.13781 18.343C5.07566 18.281 4.9715 18.295 4.9279 18.3712C4.65106 18.855 4.40568 19.2858 4.2369 19.5827C4.17011 19.7001 4.30009 19.8304 4.41769 19.7638C4.71516 19.5955 5.14702 19.3507 5.63198 19.0745C5.70848 19.0309 5.7226 18.9264 5.66027 18.8642L5.13781 18.343Z" fill="#212121"/></symbol>
  <symbol id="paus_fill" viewBox="0 0 24 24"><path d="M7 4C8.10457 4 9 4.89543 9 6V18C9 19.1046 8.10457 20 7 20C5.89543 20 5 19.1046 5 18V6C5 4.89543 5.89543 4 7 4ZM17 4C18.1046 4 19 4.89543 19 6V18C19 19.1046 18.1046 20 17 20C15.8954 20 15 19.1046 15 18V6C15 4.89543 15.8954 4 17 4Z" fill="#212121"/></symbol>
  <symbol id="pdf" viewBox="0 0 24 24"><path fill-rule="evenodd" clip-rule="evenodd" d="M10.8785 3.07401C11.4462 2.98637 11.9457 3.14408 12.3128 3.6296C12.3372 3.66188 12.3625 3.6935 12.3873 3.72543C12.6667 4.18596 12.7775 4.66855 12.8277 5.17388C12.9323 6.22623 12.6979 7.23794 12.4811 8.25014C12.3534 8.84622 12.1861 9.43321 11.9929 10.0114C11.9637 10.0988 11.9692 10.1723 12.0169 10.2605C12.4005 10.9689 12.8467 11.6355 13.3255 12.2774C13.703 12.7835 14.1288 13.2499 14.5553 13.7145C14.7588 13.9361 14.9909 13.8188 15.2116 13.7987C15.6929 13.7549 16.1688 13.6687 16.6533 13.6384C17.0657 13.6125 17.4775 13.5961 17.8882 13.6112C18.5782 13.6364 19.2626 13.7237 19.9113 13.9861C20.1261 14.0729 20.3274 14.1943 20.5142 14.3372C20.9236 14.6505 20.9998 15.0924 20.9228 15.5629C20.8451 16.0381 20.566 16.3662 20.1086 16.5229C19.526 16.7225 18.9433 16.6841 18.3465 16.582C17.5486 16.4454 16.8153 16.1478 16.1192 15.7439C15.5949 15.4398 15.095 15.0965 14.6489 14.6771C14.5347 14.5697 14.4227 14.5154 14.2422 14.5455C13.2278 14.7148 12.2367 14.9746 11.2519 15.2716C10.7501 15.423 10.2592 15.6099 9.75331 15.7451C9.5195 15.8076 9.43481 16.0037 9.34121 16.1838C9.04795 16.7482 8.70255 17.2786 8.35136 17.8046C7.91323 18.4607 7.44092 19.091 6.88146 19.6464C6.29074 20.2328 5.66823 20.761 4.82162 20.9232C4.16529 21.049 3.37414 20.7144 3.15557 20.1643C2.95365 19.6562 3.04617 19.1726 3.37645 18.7475C3.9478 18.0123 4.69909 17.5042 5.47928 17.0351C5.95415 16.7496 6.44784 16.5012 6.94634 16.2635C7.25288 16.1173 7.5668 15.9868 7.88036 15.8568C8.00905 15.8034 8.09064 15.7263 8.16116 15.595C8.77856 14.4455 9.2895 13.2453 9.77164 12.0332C10.1066 11.1912 10.392 10.3285 10.7044 9.47697C10.7533 9.3436 10.7395 9.22002 10.6863 9.10114C10.3005 8.23858 10.0396 7.33536 9.87933 6.40426C9.75093 5.65841 9.70572 4.90139 9.87512 4.15698C9.9993 3.61127 10.2853 3.16558 10.8785 3.07401ZM7.48855 16.6867C7.2404 16.7182 7.04378 16.8797 6.80655 16.9771C6.60762 17.0591 6.43812 17.1665 6.26172 17.2603C5.56109 17.6331 4.88791 18.0489 4.29006 18.581C4.02358 18.8182 3.79311 19.0854 3.65284 19.4272C3.49631 19.8086 3.75377 20.2233 4.15658 20.2355C4.44675 20.2444 4.68062 20.1123 4.9071 19.9547C5.36448 19.6364 5.73983 19.2286 6.08981 18.796C6.58495 18.1839 7.03202 17.5361 7.43448 16.8563C7.46309 16.808 7.52347 16.768 7.48855 16.6867ZM18.1009 14.1951C17.4568 14.1732 16.8109 14.1717 16.1682 14.2341C15.8908 14.261 15.6092 14.2857 15.3269 14.3928C15.3572 14.4265 15.3727 14.4469 15.3912 14.4637C15.6856 14.7305 16.0175 14.9427 16.353 15.1488C17.1064 15.6119 17.8903 15.9782 18.8174 15.9361C18.8873 15.9234 18.9388 15.91 18.9908 15.8997C19.3828 15.8218 19.6003 15.4786 19.6356 15.1181C19.6634 14.8347 19.3718 14.4813 19.0565 14.3617C18.747 14.2443 18.4229 14.206 18.1009 14.1951ZM11.6414 10.9954C11.1953 12.3784 10.6321 13.6949 10.0001 15.028C10.4112 14.9805 10.7242 14.8223 11.0736 14.7413C12.0178 14.4523 12.9618 14.2281 13.9302 14.0219C13.8999 13.9818 11.6609 11.0212 11.6414 10.9954ZM11.0469 3.63643C10.839 3.63576 10.5859 3.82328 10.5038 4.04876C10.3825 4.38171 10.3082 4.73146 10.3151 5.0824C10.3293 5.81437 10.4312 6.53772 10.6156 7.24711C10.7135 7.62372 10.8093 8.00091 10.985 8.38944C11.2144 7.75576 11.3328 7.13096 11.4872 6.49809C11.5329 6.04332 11.6365 5.61558 11.6751 5.17584C11.709 4.78994 11.6985 4.41849 11.5734 4.05392C11.4812 3.78501 11.2883 3.63721 11.0469 3.63643Z" fill="#212121"/>
<path d="M11.0754 2.66894C11.6667 2.64374 12.2133 2.86196 12.6187 3.39807L12.6899 3.48921L12.7036 3.50794L12.7148 3.52666C13.0347 4.054 13.1559 4.59887 13.2093 5.13599L13.2355 5.55549C13.2524 6.24978 13.1466 6.92343 13.017 7.56934L12.8559 8.33093C12.7271 8.93206 12.5588 9.52165 12.3665 10.1001C12.7361 10.7794 13.1666 11.423 13.6326 12.0477L13.9148 12.4086C14.2044 12.7635 14.5167 13.1054 14.8375 13.4548L14.845 13.4636C14.8478 13.4639 14.8533 13.4639 14.8625 13.4636C14.887 13.4626 14.9186 13.459 14.9748 13.4486C15.0223 13.4398 15.0998 13.4244 15.1771 13.4174L15.8826 13.3337C16.1228 13.3028 16.3735 13.2711 16.6293 13.2551L17.2611 13.2263C17.4733 13.2207 17.6871 13.2198 17.9016 13.2276L18.4385 13.2613C18.9782 13.3111 19.5247 13.4162 20.0555 13.6309L20.2403 13.7145C20.4214 13.8045 20.5906 13.9131 20.7472 14.0329L20.8471 14.1153C21.2568 14.4829 21.361 14.9599 21.3266 15.4162L21.3016 15.6247C21.2134 16.1638 20.9126 16.5698 20.4438 16.7983L20.2328 16.8857C19.7271 17.0589 19.2297 17.0737 18.7519 17.0256L18.2824 16.9594C17.5374 16.8318 16.849 16.5739 16.2022 16.229L15.9263 16.0754C15.5212 15.8404 15.1244 15.5789 14.7513 15.2751L14.3867 14.9568L14.3405 14.9206L14.3056 14.9243C13.5616 15.0485 12.8277 15.2226 12.0955 15.4262L11.3626 15.6385C11.1183 15.7121 10.8773 15.7943 10.6247 15.8782C10.4998 15.9196 10.3728 15.9616 10.2438 16.0018L9.85177 16.1154C9.83192 16.1208 9.81884 16.1285 9.79683 16.1566C9.78308 16.1742 9.76775 16.1986 9.74814 16.234L9.68196 16.3601C9.53012 16.6523 9.36456 16.9351 9.19375 17.2103L8.67058 18.0181C8.28126 18.6011 7.8584 19.1742 7.36703 19.6974L7.15226 19.9184C6.59226 20.4742 5.94778 21.0393 5.07207 21.2605L4.89352 21.3005C4.48057 21.3795 4.03929 21.313 3.66862 21.1481C3.34728 21.0051 3.0434 20.7703 2.86701 20.449L2.79959 20.3054C2.54298 19.6593 2.66792 19.0341 3.07303 18.5125L3.31402 18.2254C3.89212 17.5839 4.59344 17.1198 5.28184 16.7059L5.65268 16.4924C6.02554 16.2853 6.40464 16.0965 6.78143 15.9169L7.25965 15.7021C7.41877 15.6336 7.57698 15.567 7.73287 15.5024L7.78032 15.4749C7.78795 15.4678 7.80214 15.4521 7.82277 15.4137L8.04627 14.9867C8.55595 13.9867 8.99455 12.9481 9.41476 11.8917L9.65574 11.2624C9.88919 10.632 10.1048 9.99612 10.3437 9.34472L10.3512 9.30851L10.3362 9.25733C9.98599 8.47425 9.73595 7.66108 9.56834 6.82772L9.50091 6.4694C9.36817 5.69837 9.31596 4.88538 9.50091 4.07226L9.56459 3.84004C9.63871 3.61047 9.74781 3.38821 9.90796 3.19831C10.1283 2.9371 10.4308 2.75528 10.8195 2.69516L11.0754 2.66894ZM10.8785 3.07401C10.2853 3.16558 9.9993 3.61127 9.87512 4.15698C9.70572 4.90139 9.75093 5.65841 9.87933 6.40426C10.0396 7.33536 10.3005 8.23858 10.6863 9.10114C10.7395 9.22002 10.7533 9.3436 10.7044 9.47697C10.392 10.3285 10.1066 11.1912 9.77164 12.0332C9.2895 13.2453 8.77856 14.4455 8.16116 15.595C8.09064 15.7263 8.00905 15.8034 7.88036 15.8568C7.5668 15.9868 7.25288 16.1173 6.94634 16.2635C6.44784 16.5012 5.95415 16.7496 5.47928 17.0351C4.69909 17.5042 3.9478 18.0123 3.37645 18.7475C3.04617 19.1726 2.95365 19.6562 3.15557 20.1643C3.37414 20.7144 4.16529 21.049 4.82162 20.9232C5.66823 20.761 6.29074 20.2328 6.88146 19.6464C7.44092 19.091 7.91323 18.4607 8.35136 17.8046C8.70255 17.2786 9.04795 16.7482 9.34121 16.1838C9.43481 16.0037 9.5195 15.8076 9.75331 15.7451C10.2592 15.6099 10.7501 15.423 11.2519 15.2716C12.2367 14.9746 13.2278 14.7148 14.2422 14.5455C14.4227 14.5154 14.5347 14.5697 14.6489 14.6771C15.095 15.0965 15.5949 15.4398 16.1192 15.7439C16.8153 16.1478 17.5486 16.4454 18.3465 16.582C18.9433 16.6841 19.526 16.7225 20.1086 16.5229C20.566 16.3662 20.8451 16.0381 20.9228 15.5629C20.9998 15.0924 20.9236 14.6505 20.5142 14.3372C20.3274 14.1943 20.1261 14.0729 19.9113 13.9861C19.2626 13.7237 18.5782 13.6364 17.8882 13.6112C17.4775 13.5961 17.0657 13.6125 16.6533 13.6384C16.1688 13.6687 15.6929 13.7549 15.2116 13.7987C14.9909 13.8188 14.7588 13.9361 14.5553 13.7145C14.1288 13.2499 13.703 12.7835 13.3255 12.2774C12.8467 11.6355 12.4005 10.9689 12.0169 10.2605C11.9692 10.1723 11.9637 10.0988 11.9929 10.0114C12.1861 9.43321 12.3534 8.84622 12.4811 8.25014C12.6979 7.23794 12.9323 6.22623 12.8277 5.17388C12.7775 4.66855 12.6667 4.18596 12.3873 3.72543C12.3625 3.6935 12.3372 3.66188 12.3128 3.6296C11.9457 3.14408 11.4462 2.98637 10.8785 3.07401ZM7.48855 16.6867C7.52347 16.768 7.46309 16.808 7.43448 16.8563C7.03202 17.5361 6.58495 18.1839 6.08981 18.796C5.73983 19.2286 5.36448 19.6364 4.9071 19.9547C4.68062 20.1123 4.44675 20.2444 4.15658 20.2355C3.75377 20.2233 3.49631 19.8086 3.65284 19.4272C3.79311 19.0854 4.02358 18.8182 4.29006 18.581C4.88791 18.0489 5.56109 17.6331 6.26172 17.2603C6.43812 17.1665 6.60762 17.0591 6.80655 16.9771C7.04378 16.8797 7.2404 16.7182 7.48855 16.6867ZM6.4418 17.5986C5.84033 17.9186 5.27276 18.2648 4.76116 18.6836L4.54515 18.8671C4.36323 19.029 4.21416 19.1948 4.10439 19.3802L4.00825 19.5725C3.94699 19.7218 4.0498 19.8484 4.16807 19.8522L4.28669 19.8422C4.4048 19.8182 4.52681 19.7517 4.6875 19.6399L4.98716 19.409C5.27561 19.1623 5.53516 18.8716 5.79127 18.555L6.14463 18.1005C6.28105 17.9183 6.41195 17.732 6.54044 17.5437L6.4418 17.5986ZM16.1682 14.2341C16.8109 14.1717 17.4568 14.1732 18.1009 14.1951C18.4229 14.206 18.747 14.2443 19.0565 14.3617C19.3718 14.4813 19.6634 14.8347 19.6356 15.1181C19.6003 15.4786 19.3828 15.8218 18.9908 15.8997C18.9388 15.91 18.8873 15.9234 18.8174 15.9361C17.8903 15.9782 17.1064 15.6119 16.353 15.1488C16.0175 14.9427 15.6856 14.7305 15.3912 14.4637C15.3727 14.4469 15.3572 14.4265 15.3269 14.3928C15.6092 14.2857 15.8908 14.261 16.1682 14.2341ZM18.0876 14.5785C17.4594 14.5572 16.8411 14.5559 16.231 14.6134C16.3358 14.6821 16.4425 14.7532 16.5543 14.8219L16.8278 14.9842C17.457 15.342 18.0754 15.5774 18.7731 15.5523C18.8287 15.5416 18.8337 15.5399 18.9155 15.5236L18.9804 15.5049C19.126 15.4472 19.2326 15.2968 19.2539 15.0804L19.2426 15.0329C19.2302 15.0001 19.2071 14.9595 19.1727 14.9156C19.1189 14.847 19.0514 14.7886 18.9854 14.7508L18.9205 14.7208C18.7304 14.6487 18.5273 14.6098 18.3099 14.591L18.0876 14.5785ZM13.9302 14.0219C12.9618 14.2281 12.0178 14.4523 11.0736 14.7413C10.7242 14.8223 10.4112 14.9805 10.0001 15.028C10.6321 13.6949 11.1953 12.3784 11.6414 10.9954C11.6608 11.0211 13.8882 13.9663 13.9302 14.0219ZM11.7709 11.8018C11.4513 12.703 11.0846 13.5787 10.6871 14.4524C10.6912 14.4511 10.6954 14.4499 10.6996 14.4486L10.9868 14.3675C11.744 14.1366 12.4993 13.9471 13.263 13.7757C12.8583 13.2406 12.2033 12.3736 11.7709 11.8018ZM11.0469 3.63643C11.2883 3.63721 11.4812 3.78501 11.5734 4.05392C11.6985 4.41849 11.709 4.78994 11.6751 5.17584C11.6365 5.61558 11.5329 6.04332 11.4872 6.49809C11.3328 7.13096 11.2144 7.75576 10.985 8.38944C10.8093 8.00091 10.7135 7.62372 10.6156 7.24711C10.4312 6.53772 10.3293 5.81437 10.3151 5.0824C10.3082 4.73146 10.3825 4.38171 10.5038 4.04876C10.5859 3.82328 10.839 3.63576 11.0469 3.63643ZM11.0242 4.02607C11.009 4.03189 10.9866 4.04305 10.9593 4.06352C10.933 4.08334 10.9115 4.10548 10.8956 4.12595L10.8644 4.17964C10.755 4.48003 10.6927 4.78237 10.6983 5.07482L10.7246 5.59919C10.7633 6.08699 10.8447 6.56993 10.963 7.04746C11.0102 6.84508 11.0571 6.63848 11.1091 6.42446C11.1336 6.19497 11.171 5.97319 11.2053 5.76774C11.2419 5.5477 11.2749 5.345 11.2927 5.14224L11.3077 4.8813C11.3109 4.71262 11.3001 4.55408 11.2702 4.40187L11.2103 4.17839C11.1618 4.03706 11.0966 4.01999 11.0454 4.01983L11.0242 4.02607Z" fill="#212121"/></symbol>
  <symbol id="phone" viewBox="0 0 24 24"><rect x="5.3" y="3.8" width="13.4" height="16.4" rx="3.2" stroke="#212121" stroke-width="1.6"/>
<path d="M9.5 17H14.5" stroke="#212121" stroke-width="1.6" stroke-linecap="round"/></symbol>
  <symbol id="picture" viewBox="0 0 24 24"><g clip-path="url(#clip0_5415_90061)">
<path d="M20 13.5V6C20 4.89543 19.1046 4 18 4H6C4.89543 4 4 4.89543 4 6V17M20 13.5V18C20 19.1046 19.1046 20 18 20H6C4.89543 20 4 19.1046 4 18V17M20 13.5L17.9142 11.4142C17.1332 10.6332 15.8668 10.6332 15.0858 11.4142L11.5 15L10.3417 13.8417C9.58958 13.0896 8.38025 13.0578 7.58959 13.7694L4 17M10.8 8.9C10.8 9.39706 10.3971 9.8 9.9 9.8C9.40294 9.8 9 9.39706 9 8.9C9 8.40294 9.40294 8 9.9 8C10.3971 8 10.8 8.40294 10.8 8.9Z" stroke="#212121" stroke-width="1.8" stroke-linecap="round" stroke-linejoin="round"/>
</g>
<defs>
<clipPath id="clip0_5415_90061">
<rect width="24" height="24" fill="white"/>
</clipPath>
</defs></symbol>
  <symbol id="pin-2" viewBox="0 0 24 24"><path d="M9 3V11L7 14H12M9 3H15M9 3H8M15 3V11L17 14H12M15 3H16M12 14V21" stroke="#212121" stroke-width="1.8" stroke-linecap="round" stroke-linejoin="round"/></symbol>
  <symbol id="play_fill" viewBox="0 0 24 24"><path d="M9.00299 3.77315L20.0175 10.2746C20.966 10.8345 21.2825 12.0599 20.7245 13.0115C20.5527 13.3045 20.3093 13.5487 20.0173 13.721L9.00279 20.2208C8.05421 20.7806 6.83296 20.4628 6.27505 19.5111C6.09496 19.2039 6 18.8539 6 18.4975V5.49629C6 4.39215 6.89212 3.49707 7.9926 3.49707C8.34791 3.49707 8.69675 3.59239 9.00299 3.77315Z" fill="#212121"/></symbol>
  <symbol id="pptx" viewBox="0 0 24 24"><path d="M15.3008 6.66663C17.4547 6.66663 19.2008 8.41272 19.2008 10.5666C19.2008 12.7205 17.4547 14.4666 15.3008 14.4666H7.20078V17.4666C7.20078 18.1294 6.66352 18.6666 6.00078 18.6666C5.33804 18.6666 4.80078 18.1294 4.80078 17.4666V13.4C4.80078 12.6636 5.39773 12.0666 6.13411 12.0666H15.4674C16.2038 12.0666 16.8008 11.4697 16.8008 10.7333V10.4C16.8008 9.66358 16.2038 9.06663 15.4674 9.06663H6.00078C5.33804 9.06663 4.80078 8.52937 4.80078 7.86663C4.80078 7.20388 5.33804 6.66663 6.00078 6.66663H15.3008Z" fill="#212121"/></symbol>
  <symbol id="redo-1" viewBox="0 0 24 24"><path d="M14.5 18L18.5 14L14.5 10M18.5 14H10C7.23858 14 5 11.7614 5 9V7" stroke="#212121" stroke-width="1.8" stroke-linecap="round" stroke-linejoin="round"/></symbol>
  <symbol id="redo" viewBox="0 0 24 24"><path d="M6.89573 19.1429H13.1991C20.1992 19.1429 20.1992 9 13.1992 9H6.99917M10.9992 5L6.99917 9L10.9992 13" stroke="#212121" stroke-width="1.8" stroke-linecap="round" stroke-linejoin="round"/></symbol>
  <symbol id="search" viewBox="0 0 24 24"><path d="M11 3C15.4183 3 19 6.58172 19 11C19 12.8486 18.3703 14.5487 17.3174 15.9033L20.707 19.292C21.0976 19.6825 21.0975 20.3165 20.707 20.707C20.3166 21.0973 19.6835 21.0972 19.293 20.707L15.9033 17.3174C14.5487 18.3703 12.8486 19 11 19C6.58172 19 3 15.4183 3 11C3 6.58172 6.58172 3 11 3ZM11 5C7.68629 5 5 7.68629 5 11C5 14.3137 7.68629 17 11 17C14.3137 17 17 14.3137 17 11C17 7.68629 14.3137 5 11 5Z" fill="#212121"/></symbol>
  <symbol id="search_page" viewBox="0 0 24 24"><path d="M18 10V9L12 3H6C4.89543 3 4 3.89543 4 5V19C4 20.1046 4.89543 21 6 21H11M12 3V8C12 8.55228 12.4477 9 13 9H18M8 13H10M8 17H9.5M22 22L18.9749 18.9749M18.9749 18.9749C19.6082 18.3415 20 17.4665 20 16.5C20 14.567 18.433 13 16.5 13C14.567 13 13 14.567 13 16.5C13 18.433 14.567 20 16.5 20C17.4665 20 18.3415 19.6082 18.9749 18.9749Z" stroke="#212121" stroke-width="1.8" stroke-linecap="round" stroke-linejoin="round"/></symbol>
  <symbol id="selected_fill" viewBox="0 0 24 24"><path d="M9 16.5C13.1421 16.5 16.5 13.1421 16.5 9C16.5 4.85786 13.1421 1.5 9 1.5C4.85786 1.5 1.5 4.85786 1.5 9C1.5 13.1421 4.85786 16.5 9 16.5ZM12.9332 7.14441L8.38996 11.7944C8.26292 11.9244 8.0885 11.9985 7.90583 12C7.72315 12.0015 7.54753 11.9302 7.41835 11.8023L5.4496 9.8523C5.18347 9.5887 5.18347 9.16131 5.4496 8.89771C5.71574 8.6341 6.14724 8.6341 6.41338 8.89771L7.89228 10.3625L11.9538 6.20559C12.2155 5.9377 12.647 5.9307 12.9174 6.18994C13.1879 6.44919 13.195 6.87652 12.9332 7.14441Z" fill="#212121"/></symbol>
  <symbol id="sound_on" viewBox="0 0 24 24"><path d="M5.1627 7.22787L10.1111 2.91797C10.4283 2.64825 10.8323 2.5 11.25 2.5C12.2165 2.5 13 3.2773 13 4.23615V19.7638C13 20.1783 12.8506 20.579 12.5787 20.8937C11.9497 21.6217 10.8449 21.706 10.1111 21.082L5.1627 16.7721C5.11739 16.7336 5.05968 16.7124 5 16.7124H3.75C2.7835 16.7124 2 15.9351 2 14.9762V9.02373C2 8.06488 2.7835 7.28758 3.75 7.28758H5C5.05968 7.28758 5.11739 7.2664 5.1627 7.22787ZM5 14.9124C5.46967 14.9124 5.92631 15.0736 6.29243 15.3707L11.2 19.6483V4.3517L6.29241 8.62931C5.92631 8.92638 5.46968 9.08758 5 9.08758H3.8V14.9124H5Z" fill="#212121"/>
<path d="M14.9616 8.4064C15.3005 8.04277 15.87 8.02271 16.2336 8.36159C17.1342 9.20086 17.9854 10.3938 17.9854 12.02C17.9854 13.611 17.1648 14.7755 16.3086 15.6071C15.952 15.9534 15.3822 15.9451 15.0359 15.5885C14.6896 15.2319 14.698 14.6621 15.0545 14.3158C15.7326 13.6573 16.1854 12.929 16.1854 12.02C16.1854 11.0862 15.7121 10.3361 15.0064 9.6784C14.6428 9.33952 14.6227 8.77003 14.9616 8.4064Z" fill="#212121"/>
<path d="M19.2879 6.11524C18.9428 5.75744 18.3731 5.74709 18.0153 6.09211C17.6575 6.43714 17.6471 7.0069 17.9921 7.3647C19.2658 8.68546 20.1966 9.94975 20.1966 12.0842C20.1966 14.1367 19.3224 15.3445 18.1306 16.6559C17.7963 17.0238 17.8235 17.593 18.1914 17.9272C18.5592 18.2615 19.1284 18.2343 19.4627 17.8665C20.7562 16.4432 21.9966 14.8117 21.9966 12.0842C21.9966 9.25866 20.6849 7.56403 19.2879 6.11524Z" fill="#212121"/></symbol>
  <symbol id="square-line" viewBox="0 0 24 24"><path d="M3 3L21 21" stroke="#212121" stroke-width="1.8" stroke-linecap="round" stroke-linejoin="round"/>
<path d="M4.90039 8.67383V18C4.90039 18.6075 5.39249 19.0996 6 19.0996H15.3262L17.127 20.9004H6C4.39837 20.9004 3.09961 19.6016 3.09961 18V6.87305L4.90039 8.67383ZM18 3.09961C19.6016 3.09961 20.9004 4.39837 20.9004 6V18C20.9004 19.1169 20.2673 20.0838 19.3418 20.5684L17.873 19.0996H18C18.6075 19.0996 19.0996 18.6075 19.0996 18V6C19.0996 5.39249 18.6075 4.90039 18 4.90039H6C5.39249 4.90039 4.90039 5.39249 4.90039 6V6.12695L3.43066 4.65723C3.91531 3.73193 4.88321 3.09961 6 3.09961H18ZM10.2148 13.9883L9.34277 16.3164C9.16813 16.7816 8.6489 17.0173 8.18359 16.8428C7.7184 16.6681 7.48274 16.1489 7.65723 15.6836L8.81641 12.5898L10.2148 13.9883ZM12 7.09961C12.6337 7.09961 13.2053 7.46851 13.4697 8.03613L13.5186 8.15234L16.3428 15.6836C16.5173 16.1489 16.2816 16.6681 15.8164 16.8428C15.7643 16.8623 15.7112 16.8753 15.6582 16.8848L14.3975 15.624L13.751 13.9004H12.6738L9.51172 10.7383L10.4814 8.15234L10.5303 8.03613C10.7947 7.46851 11.3663 7.09961 12 7.09961ZM10.9238 12.0996H13.0762L12 9.22949L10.9238 12.0996Z" fill="#212121"/></symbol>
  <symbol id="square" viewBox="0 0 24 24"><path d="M15.5 16L12.6756 8.46816C12.57 8.18656 12.3008 8 12 8C11.6992 8 11.43 8.18656 11.3244 8.46816L8.5 16M9.625 13H14M6 20H18C19.1046 20 20 19.1046 20 18V6C20 4.89543 19.1046 4 18 4H6C4.89543 4 4 4.89543 4 6V18C4 19.1046 4.89543 20 6 20Z" stroke="#212121" stroke-width="1.8" stroke-linecap="round" stroke-linejoin="round"/></symbol>
  <symbol id="star" viewBox="0 0 24 24"><path d="M12 3C12 7.97056 7.97056 12 3 12C7.97056 12 12 16.0294 12 21C12 16.0294 16.0294 12 21 12C16.0294 12 12 7.97056 12 3Z" stroke="#212121" stroke-width="1.8" stroke-linecap="round" stroke-linejoin="round"/></symbol>
  <symbol id="stars" viewBox="0 0 24 24"><path d="M10 4C10 7.31371 7.31371 10 4 10C7.31371 10 10 12.6863 10 16C10 12.6863 12.6863 10 16 10C12.6863 10 10 7.31371 10 4Z" stroke="#212121" stroke-width="1.8" stroke-linecap="round" stroke-linejoin="round"/>
<path d="M17.5 15C17.5 16.3807 16.3807 17.5 15 17.5C16.3807 17.5 17.5 18.6193 17.5 20C17.5 18.6193 18.6193 17.5 20 17.5C18.6193 17.5 17.5 16.3807 17.5 15Z" stroke="#212121" stroke-width="1.8" stroke-linecap="round" stroke-linejoin="round"/></symbol>
  <symbol id="stars_fill" viewBox="0 0 24 24"><path d="M13.2333 23C13.0719 23 12.9375 22.9462 12.83 22.8387C12.7224 22.7379 12.6552 22.6068 12.6283 22.4455C12.4737 21.4238 12.309 20.56 12.1343 19.8543C11.9662 19.1552 11.7444 18.5839 11.4688 18.1402C11.2 17.6966 10.8437 17.3404 10.4001 17.0715C9.95645 16.8026 9.38847 16.5875 8.69614 16.4262C8.01053 16.2582 7.1636 16.1069 6.15535 15.9725C5.98731 15.9523 5.84951 15.8851 5.74197 15.7709C5.64114 15.6566 5.59073 15.5188 5.59073 15.3575C5.59073 15.1962 5.64114 15.0617 5.74197 14.9542C5.84951 14.8399 5.99067 14.7727 6.16543 14.7525C7.17368 14.6383 8.02397 14.5038 8.7163 14.3492C9.40863 14.1946 9.97661 13.9829 10.4202 13.714C10.8706 13.4384 11.2302 13.0755 11.4991 12.6251C11.7747 12.168 11.9965 11.5866 12.1645 10.8808C12.3326 10.1751 12.4872 9.30462 12.6283 8.26948C12.6552 8.11488 12.7224 7.98717 12.83 7.88634C12.9375 7.7788 13.0719 7.72502 13.2333 7.72502C13.3879 7.72502 13.5189 7.7788 13.6265 7.88634C13.734 7.98717 13.8012 8.11488 13.8281 8.26948C13.976 9.30462 14.134 10.1751 14.302 10.8808C14.4768 11.5799 14.6986 12.158 14.9674 12.615C15.243 13.0654 15.6026 13.4284 16.0463 13.7039C16.4899 13.9728 17.0579 14.1845 17.7502 14.3391C18.4425 14.4937 19.2928 14.6315 20.3011 14.7525C20.4624 14.7727 20.5968 14.8399 20.7044 14.9542C20.8119 15.0684 20.8657 15.2029 20.8657 15.3575C20.8657 15.5255 20.8119 15.6667 20.7044 15.7809C20.5968 15.8885 20.459 15.9523 20.291 15.9725C19.2828 16.0868 18.4325 16.2212 17.7401 16.3758C17.0478 16.5304 16.4765 16.7455 16.0261 17.0211C15.5825 17.2899 15.2229 17.6529 14.9473 18.11C14.6784 18.5603 14.46 19.1384 14.2919 19.8442C14.1239 20.5567 13.9693 21.4238 13.8281 22.4455C13.8012 22.6068 13.734 22.7379 13.6265 22.8387C13.5189 22.9462 13.3879 23 13.2333 23ZM6.56873 12.4134C6.34692 12.4134 6.22256 12.2958 6.19568 12.0605C6.12174 11.4287 6.04108 10.9346 5.9537 10.5784C5.87304 10.2154 5.7386 9.94317 5.5504 9.76169C5.36891 9.5802 5.09332 9.44241 4.72363 9.3483C4.35394 9.2542 3.84982 9.15674 3.21126 9.05591C2.95584 9.01558 2.82812 8.88787 2.82812 8.67278C2.82812 8.46441 2.93903 8.34005 3.16085 8.29973C3.81285 8.17874 4.32706 8.07119 4.70347 7.97709C5.07988 7.87626 5.36219 7.73847 5.5504 7.5637C5.7386 7.38222 5.87304 7.11671 5.9537 6.76719C6.04108 6.41766 6.12174 5.93034 6.19568 5.30522C6.22256 5.06324 6.34692 4.94226 6.56873 4.94226C6.79727 4.94226 6.92498 5.05988 6.95186 5.29514C7.03252 5.9337 7.11655 6.43446 7.20393 6.79743C7.29131 7.1604 7.42574 7.43599 7.60723 7.6242C7.78871 7.80568 8.0643 7.94348 8.43399 8.03758C8.8104 8.12496 9.32797 8.21234 9.9867 8.29973C10.0808 8.31317 10.1581 8.3535 10.2186 8.42072C10.2858 8.48793 10.3194 8.57195 10.3194 8.67278C10.3194 8.88787 10.2085 9.01558 9.9867 9.05591C9.32797 9.1769 8.81376 9.28781 8.44407 9.38863C8.07438 9.48946 7.79543 9.63061 7.60723 9.8121C7.42574 9.98686 7.29131 10.2524 7.20393 10.6086C7.11655 10.9581 7.03252 11.4488 6.95186 12.0807C6.93842 12.1748 6.89473 12.2554 6.82079 12.3226C6.75358 12.3831 6.66955 12.4134 6.56873 12.4134ZM11.2067 5.70852C11.0655 5.70852 10.9815 5.63459 10.9546 5.48671C10.8672 4.97586 10.7832 4.60617 10.7026 4.37764C10.6286 4.14238 10.474 3.9777 10.2388 3.88359C10.0102 3.78949 9.62036 3.69203 9.06919 3.5912C8.92131 3.56431 8.84737 3.48365 8.84737 3.34922C8.84737 3.21479 8.92131 3.13413 9.06919 3.10724C9.61364 3.00642 10.0035 2.90895 10.2388 2.81485C10.474 2.72075 10.6286 2.55943 10.7026 2.33089C10.7832 2.10235 10.8672 1.73266 10.9546 1.22181C10.9815 1.07394 11.0655 1 11.2067 1C11.3411 1 11.4218 1.07394 11.4487 1.22181C11.536 1.73938 11.6167 2.1158 11.6906 2.35105C11.7713 2.57959 11.9293 2.74091 12.1645 2.83501C12.3998 2.9224 12.7896 3.01314 13.3341 3.10724C13.482 3.13413 13.5559 3.21479 13.5559 3.34922C13.5559 3.48365 13.4853 3.56431 13.3442 3.5912C12.793 3.69875 12.3998 3.79957 12.1645 3.89368C11.9293 3.98778 11.7713 4.15246 11.6906 4.38772C11.6167 4.61625 11.536 4.98259 11.4487 5.48671C11.415 5.63459 11.3344 5.70852 11.2067 5.70852Z" fill="#212121"/></symbol>
  <symbol id="sticker" viewBox="0 0 24 24"><path d="M20 13L13 20H6C4.89543 20 4 19.1046 4 18V6C4 4.89543 4.89543 4 6 4H18C19.1046 4 20 4.89543 20 6V13ZM13 20V14C13 13.4477 13.4477 13 14 13H20" stroke="#212121" stroke-width="1.8" stroke-linecap="round" stroke-linejoin="round"/></symbol>
  <symbol id="title" viewBox="0 0 24 24"><path d="M12 6V19M6 6H18" stroke="#212121" stroke-width="1.8" stroke-linecap="round" stroke-linejoin="round"/></symbol>
  <symbol id="todo" viewBox="0 0 24 24"><path d="M9 17H12M9 9H15M9 13H15M10 2H14M7 21H17C18.1046 21 19 20.1046 19 19V7C19 5.89543 18.1046 5 17 5H7C5.89543 5 5 5.89543 5 7V19C5 20.1046 5.89543 21 7 21Z" stroke="#212121" stroke-width="1.8" stroke-linecap="round" stroke-linejoin="round"/></symbol>
  <symbol id="transshipment" viewBox="0 0 24 24"><path d="M12 3.81818C7.48131 3.81818 3.81818 7.48131 3.81818 12C3.81818 14.2076 4.69183 16.2109 6.11441 17.6836L6.59236 17.2056C6.91053 16.8875 7.45454 17.1128 7.45454 17.5627L7.45454 19.8788C7.45454 20.1577 7.22842 20.3839 6.94949 20.3839H4.63343C4.18348 20.3839 3.95815 19.8398 4.27631 19.5217L4.82868 18.9693C3.07899 17.169 2 14.7104 2 12C2 6.47715 6.47715 2 12 2C13.3777 2 14.6925 2.27911 15.8892 2.78472C16.3517 2.98012 16.5682 3.51345 16.3728 3.97594C16.1774 4.43843 15.644 4.65495 15.1815 4.45954C14.2047 4.04683 13.1302 3.81818 12 3.81818Z" fill="#212121"/>
<path d="M18.6197 8.20853L19.0251 7.80318C19.7599 9.03018 20.1818 10.4652 20.1818 12C20.1818 16.5187 16.5187 20.1818 12 20.1818C11.4249 20.1818 10.8647 20.1226 10.3247 20.0103C9.83311 19.9081 9.35175 20.2237 9.24952 20.7153C9.1473 21.2068 9.46292 21.6882 9.95448 21.7904C10.6156 21.9279 11.2998 22 12 22C17.5228 22 22 17.5228 22 12C22 9.96246 21.3899 8.06605 20.3431 6.48522L20.9358 5.89248C21.254 5.57431 21.0286 5.0303 20.5787 5.0303H18.2626C17.9837 5.0303 17.7576 5.25642 17.7576 5.53535V7.85141C17.7576 8.30136 18.3016 8.5267 18.6197 8.20853Z" fill="#212121"/></symbol>
  <symbol id="txt" viewBox="0 0 24 24"><path d="M13.1996 17.4668C13.1996 18.1295 12.6624 18.6668 11.9996 18.6668C11.3369 18.6668 10.7996 18.1295 10.7996 17.4668V9.06669H4.79961C4.13687 9.06669 3.59961 8.52943 3.59961 7.86669C3.59961 7.20395 4.13687 6.66669 4.79961 6.66669H19.1996C19.8624 6.66669 20.3996 7.20395 20.3996 7.86669C20.3996 8.52943 19.8624 9.06669 19.1996 9.06669H13.1996V17.4668Z" fill="#212121"/></symbol>
  <symbol id="unselected_fill" viewBox="0 0 24 24"><circle cx="8.5" cy="9" r="7" stroke="#212121" stroke-width="1.5"/></symbol>
  <symbol id="user" viewBox="0 0 24 24"><path d="M17 20C18.1046 20 19.0454 19.0899 18.7951 18.0141C18.1723 15.338 16.0897 14 12 14C7.91032 14 5.8277 15.338 5.20492 18.0141C4.95455 19.0899 5.89543 20 7 20H17Z" stroke="#212121" stroke-width="1.8" stroke-linecap="round" stroke-linejoin="round"/>
<path fill-rule="evenodd" clip-rule="evenodd" d="M12 11C14 11 15 10 15 7.5C15 5 14 4 12 4C10 4 9 5 9 7.5C9 10 10 11 12 11Z" stroke="#212121" stroke-width="1.8" stroke-linecap="round" stroke-linejoin="round"/></symbol>
  <symbol id="voice" viewBox="0 0 24 24"><path d="M14.4998 8L14.4998 16M9.50002 5L9.50002 19M4.5 10V14M19.5 10L19.5 14" stroke="#212121" stroke-width="1.8" stroke-linecap="round" stroke-linejoin="round"/></symbol>
  <symbol id="voice_loading_tag_f" viewBox="0 0 24 24"><path d="M12 6.20136C9.96126 6.20136 8.17889 7.3071 7.22317 8.95925C7.15816 9.07163 7.09703 9.18647 7.03997 9.30358C6.65271 10.0983 5.69455 10.4286 4.89985 10.0413C4.10515 9.65405 3.77486 8.69588 4.16212 7.90119C4.2525 7.71571 4.34925 7.53397 4.45205 7.35625C5.95647 4.75556 8.77227 3 12 3C15.2277 3 18.0435 4.75556 19.5479 7.35625C19.6508 7.53397 19.7475 7.71571 19.8379 7.90118C20.2251 8.69588 19.8948 9.65404 19.1002 10.0413C18.3055 10.4286 17.3473 10.0983 16.96 9.30358C16.903 9.18647 16.8418 9.07163 16.7768 8.95925C15.8211 7.3071 14.0387 6.20136 12 6.20136ZM4.89985 13.9587C5.69455 13.5714 6.65271 13.9017 7.03997 14.6964C7.09703 14.8135 7.15816 14.9284 7.22317 15.0408C8.17889 16.6929 9.96126 17.7986 12 17.7986C14.0387 17.7986 15.8211 16.6929 16.7768 15.0408C16.8418 14.9284 16.903 14.8135 16.96 14.6964C17.3473 13.9017 18.3055 13.5714 19.1002 13.9587C19.8948 14.346 20.2251 15.3041 19.8379 16.0988C19.7475 16.2843 19.6508 16.466 19.548 16.6438C18.0435 19.2444 15.2277 21 12 21C8.77227 21 5.95647 19.2444 4.45205 16.6438C4.34925 16.466 4.2525 16.2843 4.16212 16.0988C3.77486 15.3041 4.10515 14.346 4.89985 13.9587Z" fill="#212121"/></symbol>
  <symbol id="voice_message" viewBox="0 0 24 24"><path d="M13.3872 7.27237C10.7684 9.89118 10.756 14.1247 13.3595 16.7282M9.44504 3.30703C4.67197 8.10819 4.67197 15.8924 9.44504 20.6935M18.0006 11.0003C18.5529 11.0003 19.0006 11.448 19.0006 12.0003C19.0006 12.5526 18.5529 13.0003 18.0006 13.0003C17.4484 13.0003 17.0006 12.5526 17.0006 12.0003C17.0006 11.448 17.4484 11.0003 18.0006 11.0003Z" stroke="#212121" stroke-width="1.8" stroke-linecap="round" stroke-linejoin="round"/></symbol>
  <symbol id="warning" viewBox="0 0 24 24"><path d="M12 16.5H12.01M12 13.5V10.5M4.98207 20.5H19.0179C20.5615 20.5 21.5233 18.8256 20.7455 17.4923L13.7276 5.46153C12.9558 4.13852 11.0442 4.13852 10.2724 5.46153L3.25452 17.4923C2.47675 18.8256 3.43849 20.5 4.98207 20.5Z" stroke="#212121" stroke-width="1.8" stroke-linecap="round" stroke-linejoin="round"/></symbol>
  <symbol id="wechat" viewBox="0 0 24 24"><path d="M17.6697 10.9858C17.597 7.36221 14.2424 4.44446 10.1148 4.44446C5.94159 4.44446 2.55859 7.42695 2.55859 11.1061C2.55859 12.6688 3.16895 14.1059 4.19095 15.242C4.40416 15.4791 4.5107 15.7979 4.45163 16.1112L4.29222 16.9567C4.15559 17.6814 4.86511 18.2761 5.55477 18.0149L7.04404 17.451C7.23624 17.3782 7.44669 17.3714 7.64537 17.424C9.01295 17.7862 10.3083 17.8663 11.5315 17.6643" stroke="#212121" stroke-width="1.4" stroke-linecap="round"/>
<path d="M7.0793 10.2245C7.6074 10.2245 8.03555 9.79326 8.03555 9.2612C8.03555 8.72918 7.6074 8.29785 7.0793 8.29785C6.55119 8.29785 6.12305 8.72918 6.12305 9.2612C6.12305 9.79326 6.55119 10.2245 7.0793 10.2245Z" fill="#212121"/>
<path d="M11.8488 10.2245C12.3769 10.2245 12.8051 9.79326 12.8051 9.2612C12.8051 8.72918 12.3769 8.29785 11.8488 8.29785C11.3207 8.29785 10.8926 8.72918 10.8926 9.2612C10.8926 9.79326 11.3207 10.2245 11.8488 10.2245Z" fill="#212121"/>
<path d="M16.2549 10.3555C19.1781 10.3557 21.6768 12.5044 21.6768 15.3057C21.6768 16.061 21.4899 16.7763 21.1602 17.415L21.3682 18.541C21.5211 19.3765 20.6609 20.0324 19.8955 19.6641L19.3213 19.3867C18.4453 19.936 17.3882 20.2558 16.2549 20.2559C13.3315 20.2559 10.832 18.107 10.832 15.3057C10.832 12.5043 13.3315 10.3555 16.2549 10.3555ZM16.2549 11.7559C13.9623 11.7559 12.2324 13.4126 12.2324 15.3057C12.2324 17.1987 13.9623 18.8555 16.2549 18.8555C17.1719 18.8554 18.0102 18.5847 18.6807 18.1357C18.9779 17.9367 19.3699 17.9983 19.5977 18.2627L20.2188 18.5615L20.0459 17.6191C19.8265 17.4089 19.7601 17.0736 19.9082 16.791C20.1456 16.3378 20.2764 15.8351 20.2764 15.3057C20.2764 13.4127 18.5473 11.7561 16.2549 11.7559Z" fill="#212121"/>
<path d="M17.8172 15.051C17.4651 15.051 17.1797 14.7635 17.1797 14.4088C17.1797 14.0541 17.4651 13.7666 17.8172 13.7666C18.1693 13.7666 18.4547 14.0541 18.4547 14.4088C18.4547 14.7635 18.1693 15.051 17.8172 15.051Z" fill="#212121"/>
<path d="M14.6531 15.051C14.301 15.051 14.0156 14.7635 14.0156 14.4088C14.0156 14.0541 14.301 13.7666 14.6531 13.7666C15.0052 13.7666 15.2906 14.0541 15.2906 14.4088C15.2906 14.7635 15.0052 15.051 14.6531 15.051Z" fill="#212121"/></symbol>
  <symbol id="zoomin" viewBox="0 0 24 24"><path d="M14 3V9C14 9.55228 14.4477 10 15 10H21" stroke="#212121" stroke-width="1.8" stroke-linecap="round" stroke-linejoin="round"/>
<path d="M10 21L10 15C10 14.4477 9.55229 14 9 14L3 14" stroke="#212121" stroke-width="1.8" stroke-linecap="round" stroke-linejoin="round"/></symbol>
  <symbol id="zoomout" viewBox="0 0 24 24"><path d="M18.5 12.5L18.5 6.5C18.5 5.94772 18.0523 5.5 17.5 5.5L11.5 5.5" stroke="#212121" stroke-width="1.8" stroke-linecap="round" stroke-linejoin="round"/>
<path d="M5.5 11.5L5.5 17.5C5.5 18.0523 5.94772 18.5 6.5 18.5H12.5" stroke="#212121" stroke-width="1.8" stroke-linecap="round" stroke-linejoin="round"/></symbol>
</svg>
