<svg preserveAspectRatio="none" width="100%" height="100%" overflow="visible" style="display: block;" viewBox="0 0 14.08 14.08" fill="none" xmlns="http://www.w3.org/2000/svg">
<g id="Frame 2134052305" filter="url(#filter0_d_0_4)">
<rect x="2.56" y="1.92" width="8.96" height="8.96" rx="4.48" fill="white"/>
<path id="icon" d="M7.68016 3.24737C7.43416 2.82129 6.81916 2.82129 6.57316 3.24737L4.01324 7.68128C3.76724 8.10737 4.07474 8.63997 4.56674 8.63997H9.68658C10.1786 8.63997 10.4861 8.10737 10.2401 7.68128L7.68016 3.24737ZM7.12667 4.68539C7.30241 4.68539 7.44415 4.8292 7.4416 5.00492L7.41794 6.31568C7.41563 6.4749 7.28591 6.60276 7.12667 6.60276C6.96744 6.60276 6.83771 6.4749 6.8354 6.31568L6.81175 5.00492C6.8092 4.8292 6.95094 4.68539 7.12667 4.68539ZM7.47819 7.27384C7.47819 7.46798 7.32081 7.62536 7.12667 7.62536C6.93253 7.62536 6.77515 7.46798 6.77515 7.27384C6.77515 7.0797 6.93253 6.92232 7.12667 6.92232C7.32081 6.92232 7.47819 7.0797 7.47819 7.27384Z" fill="#FF6F00" fill-opacity="0.2"/>
</g>
<defs>
<filter id="filter0_d_0_4" x="0" y="-5.96046e-08" width="14.08" height="14.08" filterUnits="userSpaceOnUse" color-interpolation-filters="sRGB">
<feFlood flood-opacity="0" result="BackgroundImageFix"/>
<feColorMatrix in="SourceAlpha" type="matrix" values="0 0 0 0 0 0 0 0 0 0 0 0 0 0 0 0 0 0 127 0" result="hardAlpha"/>
<feOffset dy="0.64"/>
<feGaussianBlur stdDeviation="1.28"/>
<feComposite in2="hardAlpha" operator="out"/>
<feColorMatrix type="matrix" values="0 0 0 0 0 0 0 0 0 0 0 0 0 0 0 0 0 0 0.03 0"/>
<feBlend mode="normal" in2="BackgroundImageFix" result="effect1_dropShadow_0_4"/>
<feBlend mode="normal" in="SourceGraphic" in2="effect1_dropShadow_0_4" result="shape"/>
</filter>
</defs>
</svg>
